M48
INCH,TZ
T1C0.0118
T2C0.0157
T3C0.0197
T4C0.0276
T5C0.0315
T6C0.0354
T7C0.0394
T8C0.0433
T9C0.1181
%
G90
G05
T1
X43700Y-43872
X46150Y-42950
X46900Y-43400
X47200Y-50900
X47600Y-50500
X47700Y-43400
X50300Y-42000
X56400Y-50800
X56500Y-43300
X56800Y-43700
X57200Y-50800
X59100Y-43000
X60000Y-47900
X61200Y-48500
X61200Y-49600
X66600Y-43200
X67000Y-48800
X67300Y-46200
X67600Y-42000
X70313Y-53345
X70904Y-52754
X71200Y-39300
X74350Y-36950
X74450Y-41850
X74600Y-39500
X74850Y-39700
T2
X49800Y-43800
X54400Y-49700
T3
X41266Y-57468
X42014Y-57468
T4
X74311Y-44035
X74311Y-47035
X48680Y-56022
X51680Y-56022
X75400Y-33300
X75400Y-36300
X75400Y-28848
X75400Y-31848
X45648Y-30861
X45648Y-33861
X55986Y-30861
X55986Y-33861
X67650Y-30861
X67650Y-33861
X46550Y-30861
X46550Y-33861
X45648Y-26835
X45648Y-29835
X38800Y-28848
X38800Y-31848
X53759Y-30861
X53759Y-33861
X60441Y-30861
X60441Y-33861
X54873Y-26835
X54873Y-29835
X59327Y-26835
X59327Y-29835
X55601Y-25052
X58601Y-25052
X59109Y-58372
X59109Y-61372
X66460Y-44035
X66460Y-47035
X40140Y-56022
X43140Y-56022
X53123Y-44035
X53123Y-47035
X66150Y-35500
X69150Y-35500
X68552Y-30861
X68552Y-33861
X55986Y-26835
X55986Y-29835
X67650Y-26835
X67650Y-29835
X55601Y-35500
X58601Y-35500
X53759Y-26835
X53759Y-29835
X46550Y-26835
X46550Y-29835
X58214Y-26835
X58214Y-29835
X47452Y-30861
X47452Y-33861
X66750Y-30861
X66750Y-33861
X66150Y-25052
X69150Y-25052
X60991Y-44035
X60991Y-47035
X60441Y-26835
X60441Y-29835
X66748Y-26835
X66748Y-29835
X58214Y-30861
X58214Y-33861
X57243Y-56022
X60243Y-56022
X47300Y-58372
X47300Y-61372
X75400Y-37500
X75400Y-40500
X57100Y-26835
X57100Y-29835
X68552Y-26835
X68552Y-29835
X57100Y-30861
X57100Y-33861
X54873Y-30861
X54873Y-33861
X45000Y-25052
X48000Y-25052
X47452Y-26835
X47452Y-29835
X45000Y-35500
X48000Y-35500
X39862Y-44035
X39862Y-47035
X47654Y-44035
X47654Y-47035
X59327Y-30861
X59327Y-33861
T5
X48943Y-51770
X48943Y-54770
X49943Y-51770
X49943Y-54770
X50943Y-51770
X50943Y-54770
X51943Y-51770
X51943Y-54770
X52943Y-51770
X52943Y-54770
X53943Y-51770
X53943Y-54770
X54943Y-51770
X54943Y-54770
X55943Y-51770
X55943Y-54770
X67580Y-44075
X67580Y-47075
X54244Y-44075
X54244Y-47075
X43022Y-58550
X43022Y-59535
X55561Y-44291
X55561Y-45291
X55561Y-46291
X55561Y-47291
X55561Y-48291
X55561Y-49291
X55561Y-50291
X58561Y-44291
X58561Y-45291
X58561Y-46291
X58561Y-47291
X58561Y-48291
X58561Y-49291
X58561Y-50291
X57506Y-51770
X57506Y-54770
X58506Y-51770
X58506Y-54770
X59506Y-51770
X59506Y-54770
X60506Y-51770
X60506Y-54770
X61506Y-51770
X61506Y-54770
X62506Y-51770
X62506Y-54770
X63506Y-51770
X63506Y-54770
X64506Y-51770
X64506Y-54770
X73228Y-44075
X73228Y-47075
X62229Y-44291
X62229Y-45291
X62229Y-46291
X62229Y-47291
X62229Y-48291
X62229Y-49291
X62229Y-50291
X65229Y-44291
X65229Y-45291
X65229Y-46291
X65229Y-47291
X65229Y-48291
X65229Y-49291
X65229Y-50291
X42224Y-44291
X42224Y-45291
X42224Y-46291
X42224Y-47291
X42224Y-48291
X42224Y-49291
X42224Y-50291
X45224Y-44291
X45224Y-45291
X45224Y-46291
X45224Y-47291
X45224Y-48291
X45224Y-49291
X45224Y-50291
X46534Y-44075
X46534Y-47075
X61700Y-27300
X61700Y-33300
X62700Y-27300
X62700Y-33300
X63700Y-27300
X63700Y-33300
X64700Y-27300
X64700Y-33300
X65700Y-27300
X65700Y-33300
X68898Y-44291
X68898Y-45291
X68898Y-46291
X68898Y-47291
X68898Y-48291
X68898Y-49291
X68898Y-50291
X71898Y-44291
X71898Y-45291
X71898Y-46291
X71898Y-47291
X71898Y-48291
X71898Y-49291
X71898Y-50291
X66069Y-51770
X66069Y-54770
X67069Y-51770
X67069Y-54770
X68069Y-51770
X68069Y-54770
X69069Y-51770
X69069Y-54770
X70069Y-51770
X70069Y-54770
X71069Y-51770
X71069Y-54770
X72069Y-51770
X72069Y-54770
X73069Y-51770
X73069Y-54770
X48893Y-44291
X48893Y-45291
X48893Y-46291
X48893Y-47291
X48893Y-48291
X48893Y-49291
X48893Y-50291
X51893Y-44291
X51893Y-45291
X51893Y-46291
X51893Y-47291
X51893Y-48291
X51893Y-49291
X51893Y-50291
X66600Y-37500
X66600Y-40500
X67600Y-37500
X67600Y-40500
X68600Y-37500
X68600Y-40500
X69600Y-37500
X69600Y-40500
X70600Y-37500
X70600Y-40500
X71600Y-37500
X71600Y-40500
X72600Y-37500
X72600Y-40500
X73600Y-37500
X73600Y-40500
X57933Y-37500
X57933Y-40500
X58933Y-37500
X58933Y-40500
X59933Y-37500
X59933Y-40500
X60933Y-37500
X60933Y-40500
X61933Y-37500
X61933Y-40500
X62933Y-37500
X62933Y-40500
X63933Y-37500
X63933Y-40500
X64933Y-37500
X64933Y-40500
X40258Y-58550
X40258Y-59535
X59870Y-44075
X59870Y-47075
X69600Y-27300
X69600Y-33300
X70600Y-27300
X70600Y-33300
X71600Y-27300
X71600Y-33300
X72600Y-27300
X72600Y-33300
X73600Y-27300
X73600Y-33300
X48500Y-27300
X48500Y-33300
X49500Y-27300
X49500Y-33300
X50500Y-27300
X50500Y-33300
X51500Y-27300
X51500Y-33300
X52500Y-27300
X52500Y-33300
X41200Y-51770
X41200Y-54770
X42200Y-51770
X42200Y-54770
X43200Y-51770
X43200Y-54770
X44200Y-51770
X44200Y-54770
X45200Y-51770
X45200Y-54770
X46200Y-51770
X46200Y-54770
X47200Y-51770
X47200Y-54770
X40945Y-44075
X40945Y-47075
X40600Y-27300
X40600Y-33300
X41600Y-27300
X41600Y-33300
X42600Y-27300
X42600Y-33300
X43600Y-27300
X43600Y-33300
X44600Y-27300
X44600Y-33300
X40600Y-37500
X40600Y-40500
X41600Y-37500
X41600Y-40500
X42600Y-37500
X42600Y-40500
X43600Y-37500
X43600Y-40500
X44600Y-37500
X44600Y-40500
X45600Y-37500
X45600Y-40500
X46600Y-37500
X46600Y-40500
X47600Y-37500
X47600Y-40500
X49267Y-37500
X49267Y-40500
X50267Y-37500
X50267Y-40500
X51267Y-37500
X51267Y-40500
X52267Y-37500
X52267Y-40500
X53267Y-37500
X53267Y-40500
X54267Y-37500
X54267Y-40500
X55267Y-37500
X55267Y-40500
X56267Y-37500
X56267Y-40500
X69094Y-59439
X69094Y-61407
T6
X63198Y-35500
X64198Y-35500
X71098Y-35500
X72098Y-35500
X71098Y-25052
X72098Y-25052
X42098Y-35500
X43098Y-35500
X49898Y-35500
X50898Y-35500
X42098Y-25052
X43098Y-25052
X63198Y-25052
X64198Y-25052
X49898Y-25052
X50898Y-25052
T7
X70254Y-56691
X73207Y-56691
X48912Y-42386
X51865Y-42386
X62500Y-58947
X62500Y-61899
X55581Y-42386
X58533Y-42386
X62249Y-42386
X65202Y-42386
X44385Y-56691
X47338Y-56691
X68917Y-42386
X71870Y-42386
X53128Y-56691
X56081Y-56691
X61691Y-56691
X64644Y-56691
X42244Y-42386
X45197Y-42386
T8
X49426Y-58588
X49426Y-61147
X51198Y-58588
X51198Y-61147
X55172Y-58588
X55172Y-61147
X56944Y-58588
X56944Y-61147
X65059Y-60795
X66059Y-60795
X67059Y-60795
T9
X40100Y-25600
X74100Y-25600
T7
G00X71161Y-61094
M15
G01X71161Y-60306
M16
G05
G00X72736Y-58850
M15
G01X71949Y-58850
M16
G05
G00X73524Y-61094
M15
G01X73524Y-60306
M16
G05
T0
M30
