%TF.GenerationSoftware,KiCad,Pcbnew,5.1.8-1.fc33*%
%TF.CreationDate,2020-11-27T02:34:12-03:00*%
%TF.ProjectId,Rel_gio,52656cf3-6769-46f2-9e6b-696361645f70,rev?*%
%TF.SameCoordinates,Original*%
%TF.FileFunction,Legend,Top*%
%TF.FilePolarity,Positive*%
%FSLAX46Y46*%
G04 Gerber Fmt 4.6, Leading zero omitted, Abs format (unit mm)*
G04 Created by KiCad (PCBNEW 5.1.8-1.fc33) date 2020-11-27 02:34:12*
%MOMM*%
%LPD*%
G01*
G04 APERTURE LIST*
%ADD10C,0.120000*%
%ADD11C,0.150000*%
%ADD12C,0.300000*%
G04 APERTURE END LIST*
D10*
X192236782Y-148082000D02*
X190754000Y-148082000D01*
X188763218Y-148082000D02*
X189674500Y-148082000D01*
X187960000Y-147574000D02*
X187960000Y-148590000D01*
X192532000Y-148082000D02*
X193548000Y-148082000D01*
X193040000Y-147574000D02*
X193040000Y-148590000D01*
X188763219Y-148082000D02*
G75*
G03*
X188763219Y-148082000I-803219J0D01*
G01*
X191218421Y-147722790D02*
G75*
G03*
X191262000Y-148336000I-718421J-359210D01*
G01*
X190754000Y-148082000D02*
G75*
G03*
X190754000Y-148082000I-254000J0D01*
G01*
X193843219Y-148082000D02*
G75*
G03*
X193843219Y-148082000I-803219J0D01*
G01*
D11*
X99346476Y-157540500D02*
X99251238Y-157492880D01*
X99108380Y-157492880D01*
X98965523Y-157540500D01*
X98870285Y-157635738D01*
X98822666Y-157730976D01*
X98775047Y-157921452D01*
X98775047Y-158064309D01*
X98822666Y-158254785D01*
X98870285Y-158350023D01*
X98965523Y-158445261D01*
X99108380Y-158492880D01*
X99203619Y-158492880D01*
X99346476Y-158445261D01*
X99394095Y-158397642D01*
X99394095Y-158064309D01*
X99203619Y-158064309D01*
X100251238Y-157826214D02*
X100251238Y-158492880D01*
X99822666Y-157826214D02*
X99822666Y-158350023D01*
X99870285Y-158445261D01*
X99965523Y-158492880D01*
X100108380Y-158492880D01*
X100203619Y-158445261D01*
X100251238Y-158397642D01*
X100727428Y-158492880D02*
X100727428Y-157826214D01*
X100727428Y-157492880D02*
X100679809Y-157540500D01*
X100727428Y-157588119D01*
X100775047Y-157540500D01*
X100727428Y-157492880D01*
X100727428Y-157588119D01*
X101346476Y-158492880D02*
X101251238Y-158445261D01*
X101203619Y-158350023D01*
X101203619Y-157492880D01*
X101727428Y-158492880D02*
X101727428Y-157492880D01*
X102156000Y-158492880D02*
X102156000Y-157969071D01*
X102108380Y-157873833D01*
X102013142Y-157826214D01*
X101870285Y-157826214D01*
X101775047Y-157873833D01*
X101727428Y-157921452D01*
X103013142Y-158445261D02*
X102917904Y-158492880D01*
X102727428Y-158492880D01*
X102632190Y-158445261D01*
X102584571Y-158350023D01*
X102584571Y-157969071D01*
X102632190Y-157873833D01*
X102727428Y-157826214D01*
X102917904Y-157826214D01*
X103013142Y-157873833D01*
X103060761Y-157969071D01*
X103060761Y-158064309D01*
X102584571Y-158159547D01*
X103489333Y-158492880D02*
X103489333Y-157826214D01*
X103489333Y-158016690D02*
X103536952Y-157921452D01*
X103584571Y-157873833D01*
X103679809Y-157826214D01*
X103775047Y-157826214D01*
X104108380Y-158492880D02*
X104108380Y-157826214D01*
X104108380Y-157921452D02*
X104156000Y-157873833D01*
X104251238Y-157826214D01*
X104394095Y-157826214D01*
X104489333Y-157873833D01*
X104536952Y-157969071D01*
X104536952Y-158492880D01*
X104536952Y-157969071D02*
X104584571Y-157873833D01*
X104679809Y-157826214D01*
X104822666Y-157826214D01*
X104917904Y-157873833D01*
X104965523Y-157969071D01*
X104965523Y-158492880D01*
X105822666Y-158445261D02*
X105727428Y-158492880D01*
X105536952Y-158492880D01*
X105441714Y-158445261D01*
X105394095Y-158350023D01*
X105394095Y-157969071D01*
X105441714Y-157873833D01*
X105536952Y-157826214D01*
X105727428Y-157826214D01*
X105822666Y-157873833D01*
X105870285Y-157969071D01*
X105870285Y-158064309D01*
X105394095Y-158159547D01*
X107584571Y-157540500D02*
X107489333Y-157492880D01*
X107346476Y-157492880D01*
X107203619Y-157540500D01*
X107108380Y-157635738D01*
X107060761Y-157730976D01*
X107013142Y-157921452D01*
X107013142Y-158064309D01*
X107060761Y-158254785D01*
X107108380Y-158350023D01*
X107203619Y-158445261D01*
X107346476Y-158492880D01*
X107441714Y-158492880D01*
X107584571Y-158445261D01*
X107632190Y-158397642D01*
X107632190Y-158064309D01*
X107441714Y-158064309D01*
X108203619Y-158492880D02*
X108108380Y-158445261D01*
X108060761Y-158397642D01*
X108013142Y-158302404D01*
X108013142Y-158016690D01*
X108060761Y-157921452D01*
X108108380Y-157873833D01*
X108203619Y-157826214D01*
X108346476Y-157826214D01*
X108441714Y-157873833D01*
X108489333Y-157921452D01*
X108536952Y-158016690D01*
X108536952Y-158302404D01*
X108489333Y-158397642D01*
X108441714Y-158445261D01*
X108346476Y-158492880D01*
X108203619Y-158492880D01*
X108965523Y-158492880D02*
X108965523Y-157826214D01*
X108965523Y-157921452D02*
X109013142Y-157873833D01*
X109108380Y-157826214D01*
X109251238Y-157826214D01*
X109346476Y-157873833D01*
X109394095Y-157969071D01*
X109394095Y-158492880D01*
X109394095Y-157969071D02*
X109441714Y-157873833D01*
X109536952Y-157826214D01*
X109679809Y-157826214D01*
X109775047Y-157873833D01*
X109822666Y-157969071D01*
X109822666Y-158492880D01*
X110679809Y-158445261D02*
X110584571Y-158492880D01*
X110394095Y-158492880D01*
X110298857Y-158445261D01*
X110251238Y-158350023D01*
X110251238Y-157969071D01*
X110298857Y-157873833D01*
X110394095Y-157826214D01*
X110584571Y-157826214D01*
X110679809Y-157873833D01*
X110727428Y-157969071D01*
X110727428Y-158064309D01*
X110251238Y-158159547D01*
X111108380Y-158445261D02*
X111203619Y-158492880D01*
X111394095Y-158492880D01*
X111489333Y-158445261D01*
X111536952Y-158350023D01*
X111536952Y-158302404D01*
X111489333Y-158207166D01*
X111394095Y-158159547D01*
X111251238Y-158159547D01*
X111156000Y-158111928D01*
X111108380Y-158016690D01*
X111108380Y-157969071D01*
X111156000Y-157873833D01*
X111251238Y-157826214D01*
X111394095Y-157826214D01*
X111489333Y-157873833D01*
X97977428Y-156126571D02*
X97477428Y-155412285D01*
X97120285Y-156126571D02*
X97120285Y-154626571D01*
X97691714Y-154626571D01*
X97834571Y-154698000D01*
X97906000Y-154769428D01*
X97977428Y-154912285D01*
X97977428Y-155126571D01*
X97906000Y-155269428D01*
X97834571Y-155340857D01*
X97691714Y-155412285D01*
X97120285Y-155412285D01*
X99191714Y-156055142D02*
X99048857Y-156126571D01*
X98763142Y-156126571D01*
X98620285Y-156055142D01*
X98548857Y-155912285D01*
X98548857Y-155340857D01*
X98620285Y-155198000D01*
X98763142Y-155126571D01*
X99048857Y-155126571D01*
X99191714Y-155198000D01*
X99263142Y-155340857D01*
X99263142Y-155483714D01*
X98548857Y-155626571D01*
X100120285Y-156126571D02*
X99977428Y-156055142D01*
X99906000Y-155912285D01*
X99906000Y-154626571D01*
X100906000Y-156126571D02*
X100763142Y-156055142D01*
X100691714Y-155983714D01*
X100620285Y-155840857D01*
X100620285Y-155412285D01*
X100691714Y-155269428D01*
X100763142Y-155198000D01*
X100906000Y-155126571D01*
X101120285Y-155126571D01*
X101263142Y-155198000D01*
X101334571Y-155269428D01*
X101406000Y-155412285D01*
X101406000Y-155840857D01*
X101334571Y-155983714D01*
X101263142Y-156055142D01*
X101120285Y-156126571D01*
X100906000Y-156126571D01*
X101191714Y-154555142D02*
X100977428Y-154769428D01*
X102691714Y-155126571D02*
X102691714Y-156340857D01*
X102620285Y-156483714D01*
X102548857Y-156555142D01*
X102406000Y-156626571D01*
X102191714Y-156626571D01*
X102048857Y-156555142D01*
X102691714Y-156055142D02*
X102548857Y-156126571D01*
X102263142Y-156126571D01*
X102120285Y-156055142D01*
X102048857Y-155983714D01*
X101977428Y-155840857D01*
X101977428Y-155412285D01*
X102048857Y-155269428D01*
X102120285Y-155198000D01*
X102263142Y-155126571D01*
X102548857Y-155126571D01*
X102691714Y-155198000D01*
X103406000Y-156126571D02*
X103406000Y-155126571D01*
X103406000Y-154626571D02*
X103334571Y-154698000D01*
X103406000Y-154769428D01*
X103477428Y-154698000D01*
X103406000Y-154626571D01*
X103406000Y-154769428D01*
X104334571Y-156126571D02*
X104191714Y-156055142D01*
X104120285Y-155983714D01*
X104048857Y-155840857D01*
X104048857Y-155412285D01*
X104120285Y-155269428D01*
X104191714Y-155198000D01*
X104334571Y-155126571D01*
X104548857Y-155126571D01*
X104691714Y-155198000D01*
X104763142Y-155269428D01*
X104834571Y-155412285D01*
X104834571Y-155840857D01*
X104763142Y-155983714D01*
X104691714Y-156055142D01*
X104548857Y-156126571D01*
X104334571Y-156126571D01*
X106620285Y-156126571D02*
X106620285Y-154626571D01*
X106977428Y-154626571D01*
X107191714Y-154698000D01*
X107334571Y-154840857D01*
X107406000Y-154983714D01*
X107477428Y-155269428D01*
X107477428Y-155483714D01*
X107406000Y-155769428D01*
X107334571Y-155912285D01*
X107191714Y-156055142D01*
X106977428Y-156126571D01*
X106620285Y-156126571D01*
X108120285Y-156126571D02*
X108120285Y-155126571D01*
X108120285Y-154626571D02*
X108048857Y-154698000D01*
X108120285Y-154769428D01*
X108191714Y-154698000D01*
X108120285Y-154626571D01*
X108120285Y-154769428D01*
X109477428Y-155126571D02*
X109477428Y-156340857D01*
X109406000Y-156483714D01*
X109334571Y-156555142D01*
X109191714Y-156626571D01*
X108977428Y-156626571D01*
X108834571Y-156555142D01*
X109477428Y-156055142D02*
X109334571Y-156126571D01*
X109048857Y-156126571D01*
X108906000Y-156055142D01*
X108834571Y-155983714D01*
X108763142Y-155840857D01*
X108763142Y-155412285D01*
X108834571Y-155269428D01*
X108906000Y-155198000D01*
X109048857Y-155126571D01*
X109334571Y-155126571D01*
X109477428Y-155198000D01*
X110191714Y-156126571D02*
X110191714Y-155126571D01*
X110191714Y-154626571D02*
X110120285Y-154698000D01*
X110191714Y-154769428D01*
X110263142Y-154698000D01*
X110191714Y-154626571D01*
X110191714Y-154769428D01*
X110691714Y-155126571D02*
X111263142Y-155126571D01*
X110906000Y-154626571D02*
X110906000Y-155912285D01*
X110977428Y-156055142D01*
X111120285Y-156126571D01*
X111263142Y-156126571D01*
X112406000Y-156126571D02*
X112406000Y-155340857D01*
X112334571Y-155198000D01*
X112191714Y-155126571D01*
X111906000Y-155126571D01*
X111763142Y-155198000D01*
X112406000Y-156055142D02*
X112263142Y-156126571D01*
X111906000Y-156126571D01*
X111763142Y-156055142D01*
X111691714Y-155912285D01*
X111691714Y-155769428D01*
X111763142Y-155626571D01*
X111906000Y-155555142D01*
X112263142Y-155555142D01*
X112406000Y-155483714D01*
X113334571Y-156126571D02*
X113191714Y-156055142D01*
X113120285Y-155912285D01*
X113120285Y-154626571D01*
D12*
X132018571Y-152194000D02*
X132732857Y-152194000D01*
X131875714Y-152622571D02*
X132375714Y-151122571D01*
X132875714Y-152622571D01*
X133375714Y-151622571D02*
X133375714Y-152908285D01*
X133304285Y-153051142D01*
X133161428Y-153122571D01*
X133090000Y-153122571D01*
X133375714Y-151122571D02*
X133304285Y-151194000D01*
X133375714Y-151265428D01*
X133447142Y-151194000D01*
X133375714Y-151122571D01*
X133375714Y-151265428D01*
X134732857Y-151622571D02*
X134732857Y-152622571D01*
X134090000Y-151622571D02*
X134090000Y-152408285D01*
X134161428Y-152551142D01*
X134304285Y-152622571D01*
X134518571Y-152622571D01*
X134661428Y-152551142D01*
X134732857Y-152479714D01*
X135375714Y-152551142D02*
X135518571Y-152622571D01*
X135804285Y-152622571D01*
X135947142Y-152551142D01*
X136018571Y-152408285D01*
X136018571Y-152336857D01*
X135947142Y-152194000D01*
X135804285Y-152122571D01*
X135590000Y-152122571D01*
X135447142Y-152051142D01*
X135375714Y-151908285D01*
X135375714Y-151836857D01*
X135447142Y-151694000D01*
X135590000Y-151622571D01*
X135804285Y-151622571D01*
X135947142Y-151694000D01*
X136447142Y-151622571D02*
X137018571Y-151622571D01*
X136661428Y-151122571D02*
X136661428Y-152408285D01*
X136732857Y-152551142D01*
X136875714Y-152622571D01*
X137018571Y-152622571D01*
X138090000Y-152551142D02*
X137947142Y-152622571D01*
X137661428Y-152622571D01*
X137518571Y-152551142D01*
X137447142Y-152408285D01*
X137447142Y-151836857D01*
X137518571Y-151694000D01*
X137661428Y-151622571D01*
X137947142Y-151622571D01*
X138090000Y-151694000D01*
X138161428Y-151836857D01*
X138161428Y-151979714D01*
X137447142Y-152122571D01*
X139780857Y-158666571D02*
X139280857Y-157952285D01*
X138923714Y-158666571D02*
X138923714Y-157166571D01*
X139495142Y-157166571D01*
X139638000Y-157238000D01*
X139709428Y-157309428D01*
X139780857Y-157452285D01*
X139780857Y-157666571D01*
X139709428Y-157809428D01*
X139638000Y-157880857D01*
X139495142Y-157952285D01*
X138923714Y-157952285D01*
X141066571Y-158666571D02*
X141066571Y-157880857D01*
X140995142Y-157738000D01*
X140852285Y-157666571D01*
X140566571Y-157666571D01*
X140423714Y-157738000D01*
X141066571Y-158595142D02*
X140923714Y-158666571D01*
X140566571Y-158666571D01*
X140423714Y-158595142D01*
X140352285Y-158452285D01*
X140352285Y-158309428D01*
X140423714Y-158166571D01*
X140566571Y-158095142D01*
X140923714Y-158095142D01*
X141066571Y-158023714D01*
X140852285Y-157095142D02*
X140638000Y-157309428D01*
X141780857Y-157666571D02*
X141780857Y-159166571D01*
X141780857Y-157738000D02*
X141923714Y-157666571D01*
X142209428Y-157666571D01*
X142352285Y-157738000D01*
X142423714Y-157809428D01*
X142495142Y-157952285D01*
X142495142Y-158380857D01*
X142423714Y-158523714D01*
X142352285Y-158595142D01*
X142209428Y-158666571D01*
X141923714Y-158666571D01*
X141780857Y-158595142D01*
X143138000Y-158666571D02*
X143138000Y-157666571D01*
X143138000Y-157166571D02*
X143066571Y-157238000D01*
X143138000Y-157309428D01*
X143209428Y-157238000D01*
X143138000Y-157166571D01*
X143138000Y-157309428D01*
X144495142Y-158666571D02*
X144495142Y-157166571D01*
X144495142Y-158595142D02*
X144352285Y-158666571D01*
X144066571Y-158666571D01*
X143923714Y-158595142D01*
X143852285Y-158523714D01*
X143780857Y-158380857D01*
X143780857Y-157952285D01*
X143852285Y-157809428D01*
X143923714Y-157738000D01*
X144066571Y-157666571D01*
X144352285Y-157666571D01*
X144495142Y-157738000D01*
X145423714Y-158666571D02*
X145280857Y-158595142D01*
X145209428Y-158523714D01*
X145138000Y-158380857D01*
X145138000Y-157952285D01*
X145209428Y-157809428D01*
X145280857Y-157738000D01*
X145423714Y-157666571D01*
X145638000Y-157666571D01*
X145780857Y-157738000D01*
X145852285Y-157809428D01*
X145923714Y-157952285D01*
X145923714Y-158380857D01*
X145852285Y-158523714D01*
X145780857Y-158595142D01*
X145638000Y-158666571D01*
X145423714Y-158666571D01*
X125827714Y-158666571D02*
X125113428Y-158666571D01*
X125113428Y-157166571D01*
X126899142Y-158595142D02*
X126756285Y-158666571D01*
X126470571Y-158666571D01*
X126327714Y-158595142D01*
X126256285Y-158452285D01*
X126256285Y-157880857D01*
X126327714Y-157738000D01*
X126470571Y-157666571D01*
X126756285Y-157666571D01*
X126899142Y-157738000D01*
X126970571Y-157880857D01*
X126970571Y-158023714D01*
X126256285Y-158166571D01*
X127613428Y-157666571D02*
X127613428Y-158666571D01*
X127613428Y-157809428D02*
X127684857Y-157738000D01*
X127827714Y-157666571D01*
X128042000Y-157666571D01*
X128184857Y-157738000D01*
X128256285Y-157880857D01*
X128256285Y-158666571D01*
X128756285Y-157666571D02*
X129327714Y-157666571D01*
X128970571Y-157166571D02*
X128970571Y-158452285D01*
X129042000Y-158595142D01*
X129184857Y-158666571D01*
X129327714Y-158666571D01*
X130042000Y-158666571D02*
X129899142Y-158595142D01*
X129827714Y-158523714D01*
X129756285Y-158380857D01*
X129756285Y-157952285D01*
X129827714Y-157809428D01*
X129899142Y-157738000D01*
X130042000Y-157666571D01*
X130256285Y-157666571D01*
X130399142Y-157738000D01*
X130470571Y-157809428D01*
X130542000Y-157952285D01*
X130542000Y-158380857D01*
X130470571Y-158523714D01*
X130399142Y-158595142D01*
X130256285Y-158666571D01*
X130042000Y-158666571D01*
D10*
%TO.C,U7*%
X167122500Y-111110000D02*
X156622500Y-111110000D01*
X167122500Y-129130000D02*
X167122500Y-111110000D01*
X156622500Y-129130000D02*
X167122500Y-129130000D01*
X156622500Y-111110000D02*
X156622500Y-129130000D01*
X164122500Y-111170000D02*
X162872500Y-111170000D01*
X164122500Y-129070000D02*
X164122500Y-111170000D01*
X159622500Y-129070000D02*
X164122500Y-129070000D01*
X159622500Y-111170000D02*
X159622500Y-129070000D01*
X160872500Y-111170000D02*
X159622500Y-111170000D01*
X162872500Y-111170000D02*
G75*
G02*
X160872500Y-111170000I-1000000J0D01*
G01*
%TO.C,U16*%
X111666467Y-82024467D02*
G75*
G03*
X111666467Y-82024467I-472467J0D01*
G01*
X106461200Y-71373400D02*
X110144200Y-71373400D01*
X110322000Y-71398800D02*
X110322000Y-76758200D01*
X110322000Y-76936000D02*
X110322000Y-81838200D01*
X106461200Y-81838200D02*
X110144200Y-81838200D01*
X106283400Y-76936000D02*
X106283400Y-81838200D01*
X106461200Y-76834400D02*
X110144200Y-76834400D01*
X106283400Y-71398800D02*
X106283400Y-76758200D01*
X101844000Y-86572000D02*
X114564000Y-86572000D01*
X114564000Y-67352000D02*
X114564000Y-86572000D01*
X101844000Y-67352000D02*
X101844000Y-86572000D01*
X101844000Y-67352000D02*
X114564000Y-67352000D01*
X102324000Y-86922000D02*
X103934000Y-86922000D01*
%TO.C,U18*%
X131732467Y-82024467D02*
G75*
G03*
X131732467Y-82024467I-472467J0D01*
G01*
X126527200Y-71373400D02*
X130210200Y-71373400D01*
X130388000Y-71398800D02*
X130388000Y-76758200D01*
X130388000Y-76936000D02*
X130388000Y-81838200D01*
X126527200Y-81838200D02*
X130210200Y-81838200D01*
X126349400Y-76936000D02*
X126349400Y-81838200D01*
X126527200Y-76834400D02*
X130210200Y-76834400D01*
X126349400Y-71398800D02*
X126349400Y-76758200D01*
X121910000Y-86572000D02*
X134630000Y-86572000D01*
X134630000Y-67352000D02*
X134630000Y-86572000D01*
X121910000Y-67352000D02*
X121910000Y-86572000D01*
X121910000Y-67352000D02*
X134630000Y-67352000D01*
X122390000Y-86922000D02*
X124000000Y-86922000D01*
%TO.C,U14*%
X185326467Y-82024467D02*
G75*
G03*
X185326467Y-82024467I-472467J0D01*
G01*
X180121200Y-71373400D02*
X183804200Y-71373400D01*
X183982000Y-71398800D02*
X183982000Y-76758200D01*
X183982000Y-76936000D02*
X183982000Y-81838200D01*
X180121200Y-81838200D02*
X183804200Y-81838200D01*
X179943400Y-76936000D02*
X179943400Y-81838200D01*
X180121200Y-76834400D02*
X183804200Y-76834400D01*
X179943400Y-71398800D02*
X179943400Y-76758200D01*
X175504000Y-86572000D02*
X188224000Y-86572000D01*
X188224000Y-67352000D02*
X188224000Y-86572000D01*
X175504000Y-67352000D02*
X175504000Y-86572000D01*
X175504000Y-67352000D02*
X188224000Y-67352000D01*
X175984000Y-86922000D02*
X177594000Y-86922000D01*
%TO.C,R15*%
X168961000Y-90170000D02*
X169911000Y-90170000D01*
X174701000Y-90170000D02*
X173751000Y-90170000D01*
X169911000Y-91090000D02*
X173751000Y-91090000D01*
X169911000Y-89250000D02*
X169911000Y-91090000D01*
X173751000Y-89250000D02*
X169911000Y-89250000D01*
X173751000Y-91090000D02*
X173751000Y-89250000D01*
%TO.C,U2*%
X121278000Y-140556000D02*
X121278000Y-130056000D01*
X103258000Y-140556000D02*
X121278000Y-140556000D01*
X103258000Y-130056000D02*
X103258000Y-140556000D01*
X121278000Y-130056000D02*
X103258000Y-130056000D01*
X121218000Y-137556000D02*
X121218000Y-136306000D01*
X103318000Y-137556000D02*
X121218000Y-137556000D01*
X103318000Y-133056000D02*
X103318000Y-137556000D01*
X121218000Y-133056000D02*
X103318000Y-133056000D01*
X121218000Y-134306000D02*
X121218000Y-133056000D01*
X121218000Y-136306000D02*
G75*
G02*
X121218000Y-134306000I0J1000000D01*
G01*
%TO.C,U4*%
X165176000Y-134306000D02*
X165176000Y-133056000D01*
X165176000Y-133056000D02*
X144736000Y-133056000D01*
X144736000Y-133056000D02*
X144736000Y-137556000D01*
X144736000Y-137556000D02*
X165176000Y-137556000D01*
X165176000Y-137556000D02*
X165176000Y-136306000D01*
X165236000Y-130056000D02*
X144676000Y-130056000D01*
X144676000Y-130056000D02*
X144676000Y-140556000D01*
X144676000Y-140556000D02*
X165236000Y-140556000D01*
X165236000Y-140556000D02*
X165236000Y-130056000D01*
X165176000Y-136306000D02*
G75*
G02*
X165176000Y-134306000I0J1000000D01*
G01*
%TO.C,R18*%
X120030000Y-64551000D02*
X120030000Y-62711000D01*
X120030000Y-62711000D02*
X116190000Y-62711000D01*
X116190000Y-62711000D02*
X116190000Y-64551000D01*
X116190000Y-64551000D02*
X120030000Y-64551000D01*
X120980000Y-63631000D02*
X120030000Y-63631000D01*
X115240000Y-63631000D02*
X116190000Y-63631000D01*
%TO.C,R16*%
X146956500Y-64551000D02*
X146956500Y-62711000D01*
X146956500Y-62711000D02*
X143116500Y-62711000D01*
X143116500Y-62711000D02*
X143116500Y-64551000D01*
X143116500Y-64551000D02*
X146956500Y-64551000D01*
X147906500Y-63631000D02*
X146956500Y-63631000D01*
X142166500Y-63631000D02*
X143116500Y-63631000D01*
%TO.C,R14*%
X173751000Y-64551000D02*
X173751000Y-62711000D01*
X173751000Y-62711000D02*
X169911000Y-62711000D01*
X169911000Y-62711000D02*
X169911000Y-64551000D01*
X169911000Y-64551000D02*
X173751000Y-64551000D01*
X174701000Y-63631000D02*
X173751000Y-63631000D01*
X168961000Y-63631000D02*
X169911000Y-63631000D01*
%TO.C,R12*%
X190596000Y-90312000D02*
X192436000Y-90312000D01*
X192436000Y-90312000D02*
X192436000Y-86472000D01*
X192436000Y-86472000D02*
X190596000Y-86472000D01*
X190596000Y-86472000D02*
X190596000Y-90312000D01*
X191516000Y-91262000D02*
X191516000Y-90312000D01*
X191516000Y-85522000D02*
X191516000Y-86472000D01*
%TO.C,D14*%
X110699000Y-90170000D02*
G75*
G03*
X110699000Y-90170000I-2500000J0D01*
G01*
X105639000Y-88625000D02*
X105639000Y-91715000D01*
X111189000Y-90169538D02*
G75*
G02*
X105639000Y-91714830I-2990000J-462D01*
G01*
X111189000Y-90170462D02*
G75*
G03*
X105639000Y-88625170I-2990000J462D01*
G01*
%TO.C,D13*%
X110699000Y-63631000D02*
G75*
G03*
X110699000Y-63631000I-2500000J0D01*
G01*
X105639000Y-62086000D02*
X105639000Y-65176000D01*
X111189000Y-63630538D02*
G75*
G02*
X105639000Y-65175830I-2990000J-462D01*
G01*
X111189000Y-63631462D02*
G75*
G03*
X105639000Y-62086170I-2990000J462D01*
G01*
%TO.C,D12*%
X130511000Y-90170000D02*
G75*
G03*
X130511000Y-90170000I-2500000J0D01*
G01*
X125451000Y-88625000D02*
X125451000Y-91715000D01*
X131001000Y-90169538D02*
G75*
G02*
X125451000Y-91714830I-2990000J-462D01*
G01*
X131001000Y-90170462D02*
G75*
G03*
X125451000Y-88625170I-2990000J462D01*
G01*
%TO.C,D11*%
X130511000Y-63631000D02*
G75*
G03*
X130511000Y-63631000I-2500000J0D01*
G01*
X125451000Y-62086000D02*
X125451000Y-65176000D01*
X131001000Y-63630538D02*
G75*
G02*
X125451000Y-65175830I-2990000J-462D01*
G01*
X131001000Y-63631462D02*
G75*
G03*
X125451000Y-62086170I-2990000J462D01*
G01*
%TO.C,D10*%
X164293000Y-90170000D02*
G75*
G03*
X164293000Y-90170000I-2500000J0D01*
G01*
X159233000Y-88625000D02*
X159233000Y-91715000D01*
X164783000Y-90169538D02*
G75*
G02*
X159233000Y-91714830I-2990000J-462D01*
G01*
X164783000Y-90170462D02*
G75*
G03*
X159233000Y-88625170I-2990000J462D01*
G01*
%TO.C,D9*%
X164293000Y-63631000D02*
G75*
G03*
X164293000Y-63631000I-2500000J0D01*
G01*
X159233000Y-62086000D02*
X159233000Y-65176000D01*
X164783000Y-63630538D02*
G75*
G02*
X159233000Y-65175830I-2990000J-462D01*
G01*
X164783000Y-63631462D02*
G75*
G03*
X159233000Y-62086170I-2990000J462D01*
G01*
%TO.C,D8*%
X184359000Y-90170000D02*
G75*
G03*
X184359000Y-90170000I-2500000J0D01*
G01*
X179299000Y-88625000D02*
X179299000Y-91715000D01*
X184849000Y-90169538D02*
G75*
G02*
X179299000Y-91714830I-2990000J-462D01*
G01*
X184849000Y-90170462D02*
G75*
G03*
X179299000Y-88625170I-2990000J462D01*
G01*
%TO.C,D7*%
X184359000Y-63631000D02*
G75*
G03*
X184359000Y-63631000I-2500000J0D01*
G01*
X179299000Y-62086000D02*
X179299000Y-65176000D01*
X184849000Y-63630538D02*
G75*
G02*
X179299000Y-65175830I-2990000J-462D01*
G01*
X184849000Y-63631462D02*
G75*
G03*
X179299000Y-62086170I-2990000J462D01*
G01*
%TO.C,U3*%
X143486000Y-140556000D02*
X143486000Y-130056000D01*
X122926000Y-140556000D02*
X143486000Y-140556000D01*
X122926000Y-130056000D02*
X122926000Y-140556000D01*
X143486000Y-130056000D02*
X122926000Y-130056000D01*
X143426000Y-137556000D02*
X143426000Y-136306000D01*
X122986000Y-137556000D02*
X143426000Y-137556000D01*
X122986000Y-133056000D02*
X122986000Y-137556000D01*
X143426000Y-133056000D02*
X122986000Y-133056000D01*
X143426000Y-134306000D02*
X143426000Y-133056000D01*
X143426000Y-136306000D02*
G75*
G02*
X143426000Y-134306000I0J1000000D01*
G01*
%TO.C,R4*%
X120142000Y-154944000D02*
X120142000Y-153994000D01*
X120142000Y-149204000D02*
X120142000Y-150154000D01*
X121062000Y-153994000D02*
X121062000Y-150154000D01*
X119222000Y-153994000D02*
X121062000Y-153994000D01*
X119222000Y-150154000D02*
X119222000Y-153994000D01*
X121062000Y-150154000D02*
X119222000Y-150154000D01*
%TO.C,U10*%
X116310000Y-111110000D02*
X105810000Y-111110000D01*
X116310000Y-129130000D02*
X116310000Y-111110000D01*
X105810000Y-129130000D02*
X116310000Y-129130000D01*
X105810000Y-111110000D02*
X105810000Y-129130000D01*
X113310000Y-111170000D02*
X112060000Y-111170000D01*
X113310000Y-129070000D02*
X113310000Y-111170000D01*
X108810000Y-129070000D02*
X113310000Y-129070000D01*
X108810000Y-111170000D02*
X108810000Y-129070000D01*
X110060000Y-111170000D02*
X108810000Y-111170000D01*
X112060000Y-111170000D02*
G75*
G02*
X110060000Y-111170000I-1000000J0D01*
G01*
%TO.C,SW2*%
X143138000Y-148564000D02*
X141638000Y-148564000D01*
X139138000Y-149814000D02*
X139138000Y-154314000D01*
X141638000Y-155564000D02*
X143138000Y-155564000D01*
X145638000Y-154314000D02*
X145638000Y-149814000D01*
%TO.C,SW1*%
X128542000Y-148564000D02*
X127042000Y-148564000D01*
X124542000Y-149814000D02*
X124542000Y-154314000D01*
X127042000Y-155564000D02*
X128542000Y-155564000D01*
X131042000Y-154314000D02*
X131042000Y-149814000D01*
%TO.C,U1*%
X162670000Y-151149500D02*
X172910000Y-151149500D01*
X162670000Y-155790500D02*
X172910000Y-155790500D01*
X162670000Y-151149500D02*
X162670000Y-155790500D01*
X172910000Y-151149500D02*
X172910000Y-155790500D01*
X162670000Y-152659500D02*
X172910000Y-152659500D01*
X165940000Y-151149500D02*
X165940000Y-152659500D01*
X169641000Y-151149500D02*
X169641000Y-152659500D01*
%TO.C,Y1*%
X107466000Y-145968000D02*
G75*
G02*
X104066000Y-145968000I-1700000J0D01*
G01*
X107466000Y-145968000D02*
G75*
G03*
X104066000Y-145968000I-1700000J0D01*
G01*
%TO.C,U17*%
X123747333Y-93810000D02*
X123747333Y-104310000D01*
X144307333Y-93810000D02*
X123747333Y-93810000D01*
X144307333Y-104310000D02*
X144307333Y-93810000D01*
X123747333Y-104310000D02*
X144307333Y-104310000D01*
X123807333Y-96810000D02*
X123807333Y-98060000D01*
X144247333Y-96810000D02*
X123807333Y-96810000D01*
X144247333Y-101310000D02*
X144247333Y-96810000D01*
X123807333Y-101310000D02*
X144247333Y-101310000D01*
X123807333Y-100060000D02*
X123807333Y-101310000D01*
X123807333Y-98060000D02*
G75*
G02*
X123807333Y-100060000I0J-1000000D01*
G01*
%TO.C,U13*%
X167774000Y-93810000D02*
X167774000Y-104310000D01*
X188334000Y-93810000D02*
X167774000Y-93810000D01*
X188334000Y-104310000D02*
X188334000Y-93810000D01*
X167774000Y-104310000D02*
X188334000Y-104310000D01*
X167834000Y-96810000D02*
X167834000Y-98060000D01*
X188274000Y-96810000D02*
X167834000Y-96810000D01*
X188274000Y-101310000D02*
X188274000Y-96810000D01*
X167834000Y-101310000D02*
X188274000Y-101310000D01*
X167834000Y-100060000D02*
X167834000Y-101310000D01*
X167834000Y-98060000D02*
G75*
G02*
X167834000Y-100060000I0J-1000000D01*
G01*
%TO.C,U12*%
X165260467Y-82024467D02*
G75*
G03*
X165260467Y-82024467I-472467J0D01*
G01*
X160055200Y-71373400D02*
X163738200Y-71373400D01*
X163916000Y-71398800D02*
X163916000Y-76758200D01*
X163916000Y-76936000D02*
X163916000Y-81838200D01*
X160055200Y-81838200D02*
X163738200Y-81838200D01*
X159877400Y-76936000D02*
X159877400Y-81838200D01*
X160055200Y-76834400D02*
X163738200Y-76834400D01*
X159877400Y-71398800D02*
X159877400Y-76758200D01*
X155438000Y-86572000D02*
X168158000Y-86572000D01*
X168158000Y-67352000D02*
X168158000Y-86572000D01*
X155438000Y-67352000D02*
X155438000Y-86572000D01*
X155438000Y-67352000D02*
X168158000Y-67352000D01*
X155918000Y-86922000D02*
X157528000Y-86922000D01*
%TO.C,U15*%
X101734000Y-93810000D02*
X101734000Y-104310000D01*
X122294000Y-93810000D02*
X101734000Y-93810000D01*
X122294000Y-104310000D02*
X122294000Y-93810000D01*
X101734000Y-104310000D02*
X122294000Y-104310000D01*
X101794000Y-96810000D02*
X101794000Y-98060000D01*
X122234000Y-96810000D02*
X101794000Y-96810000D01*
X122234000Y-101310000D02*
X122234000Y-96810000D01*
X101794000Y-101310000D02*
X122234000Y-101310000D01*
X101794000Y-100060000D02*
X101794000Y-101310000D01*
X101794000Y-98060000D02*
G75*
G02*
X101794000Y-100060000I0J-1000000D01*
G01*
%TO.C,U11*%
X145760666Y-93810000D02*
X145760666Y-104310000D01*
X166320666Y-93810000D02*
X145760666Y-93810000D01*
X166320666Y-104310000D02*
X166320666Y-93810000D01*
X145760666Y-104310000D02*
X166320666Y-104310000D01*
X145820666Y-96810000D02*
X145820666Y-98060000D01*
X166260666Y-96810000D02*
X145820666Y-96810000D01*
X166260666Y-101310000D02*
X166260666Y-96810000D01*
X145820666Y-101310000D02*
X166260666Y-101310000D01*
X145820666Y-100060000D02*
X145820666Y-101310000D01*
X145820666Y-98060000D02*
G75*
G02*
X145820666Y-100060000I0J-1000000D01*
G01*
%TO.C,U6*%
X184060000Y-111110000D02*
X173560000Y-111110000D01*
X184060000Y-129130000D02*
X184060000Y-111110000D01*
X173560000Y-129130000D02*
X184060000Y-129130000D01*
X173560000Y-111110000D02*
X173560000Y-129130000D01*
X181060000Y-111170000D02*
X179810000Y-111170000D01*
X181060000Y-129070000D02*
X181060000Y-111170000D01*
X176560000Y-129070000D02*
X181060000Y-129070000D01*
X176560000Y-111170000D02*
X176560000Y-129070000D01*
X177810000Y-111170000D02*
X176560000Y-111170000D01*
X179810000Y-111170000D02*
G75*
G02*
X177810000Y-111170000I-1000000J0D01*
G01*
%TO.C,U9*%
X150185000Y-111110000D02*
X139685000Y-111110000D01*
X150185000Y-129130000D02*
X150185000Y-111110000D01*
X139685000Y-129130000D02*
X150185000Y-129130000D01*
X139685000Y-111110000D02*
X139685000Y-129130000D01*
X147185000Y-111170000D02*
X145935000Y-111170000D01*
X147185000Y-129070000D02*
X147185000Y-111170000D01*
X142685000Y-129070000D02*
X147185000Y-129070000D01*
X142685000Y-111170000D02*
X142685000Y-129070000D01*
X143935000Y-111170000D02*
X142685000Y-111170000D01*
X145935000Y-111170000D02*
G75*
G02*
X143935000Y-111170000I-1000000J0D01*
G01*
%TO.C,U8*%
X133247500Y-111110000D02*
X122747500Y-111110000D01*
X133247500Y-129130000D02*
X133247500Y-111110000D01*
X122747500Y-129130000D02*
X133247500Y-129130000D01*
X122747500Y-111110000D02*
X122747500Y-129130000D01*
X130247500Y-111170000D02*
X128997500Y-111170000D01*
X130247500Y-129070000D02*
X130247500Y-111170000D01*
X125747500Y-129070000D02*
X130247500Y-129070000D01*
X125747500Y-111170000D02*
X125747500Y-129070000D01*
X126997500Y-111170000D02*
X125747500Y-111170000D01*
X128997500Y-111170000D02*
G75*
G02*
X126997500Y-111170000I-1000000J0D01*
G01*
%TO.C,U5*%
X186986000Y-140556000D02*
X186986000Y-130056000D01*
X166426000Y-140556000D02*
X186986000Y-140556000D01*
X166426000Y-130056000D02*
X166426000Y-140556000D01*
X186986000Y-130056000D02*
X166426000Y-130056000D01*
X186926000Y-137556000D02*
X186926000Y-136306000D01*
X166486000Y-137556000D02*
X186926000Y-137556000D01*
X166486000Y-133056000D02*
X166486000Y-137556000D01*
X186926000Y-133056000D02*
X166486000Y-133056000D01*
X186926000Y-134306000D02*
X186926000Y-133056000D01*
X186926000Y-136306000D02*
G75*
G02*
X186926000Y-134306000I0J1000000D01*
G01*
%TO.C,R47*%
X136548500Y-79327000D02*
X136548500Y-80277000D01*
X136548500Y-85067000D02*
X136548500Y-84117000D01*
X135628500Y-80277000D02*
X135628500Y-84117000D01*
X137468500Y-80277000D02*
X135628500Y-80277000D01*
X137468500Y-84117000D02*
X137468500Y-80277000D01*
X135628500Y-84117000D02*
X137468500Y-84117000D01*
%TO.C,R45*%
X136548500Y-69102000D02*
X136548500Y-70052000D01*
X136548500Y-74842000D02*
X136548500Y-73892000D01*
X135628500Y-70052000D02*
X135628500Y-73892000D01*
X137468500Y-70052000D02*
X135628500Y-70052000D01*
X137468500Y-73892000D02*
X137468500Y-70052000D01*
X135628500Y-73892000D02*
X137468500Y-73892000D01*
%TO.C,R43*%
X145034000Y-69102000D02*
X145034000Y-70052000D01*
X145034000Y-74842000D02*
X145034000Y-73892000D01*
X144114000Y-70052000D02*
X144114000Y-73892000D01*
X145954000Y-70052000D02*
X144114000Y-70052000D01*
X145954000Y-73892000D02*
X145954000Y-70052000D01*
X144114000Y-73892000D02*
X145954000Y-73892000D01*
%TO.C,R41*%
X142205500Y-79327000D02*
X142205500Y-80277000D01*
X142205500Y-85067000D02*
X142205500Y-84117000D01*
X141285500Y-80277000D02*
X141285500Y-84117000D01*
X143125500Y-80277000D02*
X141285500Y-80277000D01*
X143125500Y-84117000D02*
X143125500Y-80277000D01*
X141285500Y-84117000D02*
X143125500Y-84117000D01*
%TO.C,R39*%
X142205500Y-69102000D02*
X142205500Y-70052000D01*
X142205500Y-74842000D02*
X142205500Y-73892000D01*
X141285500Y-70052000D02*
X141285500Y-73892000D01*
X143125500Y-70052000D02*
X141285500Y-70052000D01*
X143125500Y-73892000D02*
X143125500Y-70052000D01*
X141285500Y-73892000D02*
X143125500Y-73892000D01*
%TO.C,R37*%
X139377000Y-79327000D02*
X139377000Y-80277000D01*
X139377000Y-85067000D02*
X139377000Y-84117000D01*
X138457000Y-80277000D02*
X138457000Y-84117000D01*
X140297000Y-80277000D02*
X138457000Y-80277000D01*
X140297000Y-84117000D02*
X140297000Y-80277000D01*
X138457000Y-84117000D02*
X140297000Y-84117000D01*
%TO.C,R35*%
X139377000Y-69102000D02*
X139377000Y-70052000D01*
X139377000Y-74842000D02*
X139377000Y-73892000D01*
X138457000Y-70052000D02*
X138457000Y-73892000D01*
X140297000Y-70052000D02*
X138457000Y-70052000D01*
X140297000Y-73892000D02*
X140297000Y-70052000D01*
X138457000Y-73892000D02*
X140297000Y-73892000D01*
%TO.C,R33*%
X169545000Y-79327000D02*
X169545000Y-80277000D01*
X169545000Y-85067000D02*
X169545000Y-84117000D01*
X168625000Y-80277000D02*
X168625000Y-84117000D01*
X170465000Y-80277000D02*
X168625000Y-80277000D01*
X170465000Y-84117000D02*
X170465000Y-80277000D01*
X168625000Y-84117000D02*
X170465000Y-84117000D01*
%TO.C,R31*%
X169539500Y-69102000D02*
X169539500Y-70052000D01*
X169539500Y-74842000D02*
X169539500Y-73892000D01*
X168619500Y-70052000D02*
X168619500Y-73892000D01*
X170459500Y-70052000D02*
X168619500Y-70052000D01*
X170459500Y-73892000D02*
X170459500Y-70052000D01*
X168619500Y-73892000D02*
X170459500Y-73892000D01*
%TO.C,R29*%
X191516000Y-74214500D02*
X191516000Y-75164500D01*
X191516000Y-79954500D02*
X191516000Y-79004500D01*
X190596000Y-75164500D02*
X190596000Y-79004500D01*
X192436000Y-75164500D02*
X190596000Y-75164500D01*
X192436000Y-79004500D02*
X192436000Y-75164500D01*
X190596000Y-79004500D02*
X192436000Y-79004500D01*
%TO.C,R27*%
X174122500Y-79327000D02*
X174122500Y-80277000D01*
X174122500Y-85067000D02*
X174122500Y-84117000D01*
X173202500Y-80277000D02*
X173202500Y-84117000D01*
X175042500Y-80277000D02*
X173202500Y-80277000D01*
X175042500Y-84117000D02*
X175042500Y-80277000D01*
X173202500Y-84117000D02*
X175042500Y-84117000D01*
%TO.C,R25*%
X174122500Y-69102000D02*
X174122500Y-70052000D01*
X174122500Y-74842000D02*
X174122500Y-73892000D01*
X173202500Y-70052000D02*
X173202500Y-73892000D01*
X175042500Y-70052000D02*
X173202500Y-70052000D01*
X175042500Y-73892000D02*
X175042500Y-70052000D01*
X173202500Y-73892000D02*
X175042500Y-73892000D01*
%TO.C,R23*%
X171831000Y-79327000D02*
X171831000Y-80277000D01*
X171831000Y-85067000D02*
X171831000Y-84117000D01*
X170911000Y-80277000D02*
X170911000Y-84117000D01*
X172751000Y-80277000D02*
X170911000Y-80277000D01*
X172751000Y-84117000D02*
X172751000Y-80277000D01*
X170911000Y-84117000D02*
X172751000Y-84117000D01*
%TO.C,R21*%
X171831000Y-69102000D02*
X171831000Y-70052000D01*
X171831000Y-74842000D02*
X171831000Y-73892000D01*
X170911000Y-70052000D02*
X170911000Y-73892000D01*
X172751000Y-70052000D02*
X170911000Y-70052000D01*
X172751000Y-73892000D02*
X172751000Y-70052000D01*
X170911000Y-73892000D02*
X172751000Y-73892000D01*
%TO.C,R19*%
X115240000Y-90170000D02*
X116190000Y-90170000D01*
X120980000Y-90170000D02*
X120030000Y-90170000D01*
X116190000Y-91090000D02*
X120030000Y-91090000D01*
X116190000Y-89250000D02*
X116190000Y-91090000D01*
X120030000Y-89250000D02*
X116190000Y-89250000D01*
X120030000Y-91090000D02*
X120030000Y-89250000D01*
%TO.C,R17*%
X142166500Y-90170000D02*
X143116500Y-90170000D01*
X147906500Y-90170000D02*
X146956500Y-90170000D01*
X143116500Y-91090000D02*
X146956500Y-91090000D01*
X143116500Y-89250000D02*
X143116500Y-91090000D01*
X146956500Y-89250000D02*
X143116500Y-89250000D01*
X146956500Y-91090000D02*
X146956500Y-89250000D01*
%TO.C,R13*%
X191516000Y-96190000D02*
X191516000Y-97140000D01*
X191516000Y-101930000D02*
X191516000Y-100980000D01*
X190596000Y-97140000D02*
X190596000Y-100980000D01*
X192436000Y-97140000D02*
X190596000Y-97140000D01*
X192436000Y-100980000D02*
X192436000Y-97140000D01*
X190596000Y-100980000D02*
X192436000Y-100980000D01*
%TO.C,R46*%
X115945500Y-69102000D02*
X115945500Y-70052000D01*
X115945500Y-74842000D02*
X115945500Y-73892000D01*
X115025500Y-70052000D02*
X115025500Y-73892000D01*
X116865500Y-70052000D02*
X115025500Y-70052000D01*
X116865500Y-73892000D02*
X116865500Y-70052000D01*
X115025500Y-73892000D02*
X116865500Y-73892000D01*
%TO.C,R44*%
X98552000Y-74214500D02*
X98552000Y-75164500D01*
X98552000Y-79954500D02*
X98552000Y-79004500D01*
X97632000Y-75164500D02*
X97632000Y-79004500D01*
X99472000Y-75164500D02*
X97632000Y-75164500D01*
X99472000Y-79004500D02*
X99472000Y-75164500D01*
X97632000Y-79004500D02*
X99472000Y-79004500D01*
%TO.C,R42*%
X120528500Y-79327000D02*
X120528500Y-80277000D01*
X120528500Y-85067000D02*
X120528500Y-84117000D01*
X119608500Y-80277000D02*
X119608500Y-84117000D01*
X121448500Y-80277000D02*
X119608500Y-80277000D01*
X121448500Y-84117000D02*
X121448500Y-80277000D01*
X119608500Y-84117000D02*
X121448500Y-84117000D01*
%TO.C,R40*%
X120528500Y-69102000D02*
X120528500Y-70052000D01*
X120528500Y-74842000D02*
X120528500Y-73892000D01*
X119608500Y-70052000D02*
X119608500Y-73892000D01*
X121448500Y-70052000D02*
X119608500Y-70052000D01*
X121448500Y-73892000D02*
X121448500Y-70052000D01*
X119608500Y-73892000D02*
X121448500Y-73892000D01*
%TO.C,R38*%
X118237000Y-79327000D02*
X118237000Y-80277000D01*
X118237000Y-85067000D02*
X118237000Y-84117000D01*
X117317000Y-80277000D02*
X117317000Y-84117000D01*
X119157000Y-80277000D02*
X117317000Y-80277000D01*
X119157000Y-84117000D02*
X119157000Y-80277000D01*
X117317000Y-84117000D02*
X119157000Y-84117000D01*
%TO.C,R36*%
X118237000Y-69102000D02*
X118237000Y-70052000D01*
X118237000Y-74842000D02*
X118237000Y-73892000D01*
X117317000Y-70052000D02*
X117317000Y-73892000D01*
X119157000Y-70052000D02*
X117317000Y-70052000D01*
X119157000Y-73892000D02*
X119157000Y-70052000D01*
X117317000Y-73892000D02*
X119157000Y-73892000D01*
%TO.C,R34*%
X115945500Y-79327000D02*
X115945500Y-80277000D01*
X115945500Y-85067000D02*
X115945500Y-84117000D01*
X115025500Y-80277000D02*
X115025500Y-84117000D01*
X116865500Y-80277000D02*
X115025500Y-80277000D01*
X116865500Y-84117000D02*
X116865500Y-80277000D01*
X115025500Y-84117000D02*
X116865500Y-84117000D01*
%TO.C,R32*%
X147862500Y-69102000D02*
X147862500Y-70052000D01*
X147862500Y-74842000D02*
X147862500Y-73892000D01*
X146942500Y-70052000D02*
X146942500Y-73892000D01*
X148782500Y-70052000D02*
X146942500Y-70052000D01*
X148782500Y-73892000D02*
X148782500Y-70052000D01*
X146942500Y-73892000D02*
X148782500Y-73892000D01*
%TO.C,R30*%
X145034000Y-79327000D02*
X145034000Y-80277000D01*
X145034000Y-85067000D02*
X145034000Y-84117000D01*
X144114000Y-80277000D02*
X144114000Y-84117000D01*
X145954000Y-80277000D02*
X144114000Y-80277000D01*
X145954000Y-84117000D02*
X145954000Y-80277000D01*
X144114000Y-84117000D02*
X145954000Y-84117000D01*
%TO.C,R28*%
X153519500Y-79327000D02*
X153519500Y-80277000D01*
X153519500Y-85067000D02*
X153519500Y-84117000D01*
X152599500Y-80277000D02*
X152599500Y-84117000D01*
X154439500Y-80277000D02*
X152599500Y-80277000D01*
X154439500Y-84117000D02*
X154439500Y-80277000D01*
X152599500Y-84117000D02*
X154439500Y-84117000D01*
%TO.C,R26*%
X153519500Y-69102000D02*
X153519500Y-70052000D01*
X153519500Y-74842000D02*
X153519500Y-73892000D01*
X152599500Y-70052000D02*
X152599500Y-73892000D01*
X154439500Y-70052000D02*
X152599500Y-70052000D01*
X154439500Y-73892000D02*
X154439500Y-70052000D01*
X152599500Y-73892000D02*
X154439500Y-73892000D01*
%TO.C,R24*%
X150691000Y-79327000D02*
X150691000Y-80277000D01*
X150691000Y-85067000D02*
X150691000Y-84117000D01*
X149771000Y-80277000D02*
X149771000Y-84117000D01*
X151611000Y-80277000D02*
X149771000Y-80277000D01*
X151611000Y-84117000D02*
X151611000Y-80277000D01*
X149771000Y-84117000D02*
X151611000Y-84117000D01*
%TO.C,R22*%
X150691000Y-69102000D02*
X150691000Y-70052000D01*
X150691000Y-74842000D02*
X150691000Y-73892000D01*
X149771000Y-70052000D02*
X149771000Y-73892000D01*
X151611000Y-70052000D02*
X149771000Y-70052000D01*
X151611000Y-73892000D02*
X151611000Y-70052000D01*
X149771000Y-73892000D02*
X151611000Y-73892000D01*
%TO.C,R20*%
X147862500Y-79327000D02*
X147862500Y-80277000D01*
X147862500Y-85067000D02*
X147862500Y-84117000D01*
X146942500Y-80277000D02*
X146942500Y-84117000D01*
X148782500Y-80277000D02*
X146942500Y-80277000D01*
X148782500Y-84117000D02*
X148782500Y-80277000D01*
X146942500Y-84117000D02*
X148782500Y-84117000D01*
%TO.C,R7*%
X188750000Y-112790000D02*
X188750000Y-113740000D01*
X188750000Y-118530000D02*
X188750000Y-117580000D01*
X187830000Y-113740000D02*
X187830000Y-117580000D01*
X189670000Y-113740000D02*
X187830000Y-113740000D01*
X189670000Y-117580000D02*
X189670000Y-113740000D01*
X187830000Y-117580000D02*
X189670000Y-117580000D01*
%TO.C,R6*%
X168808333Y-112790000D02*
X168808333Y-113740000D01*
X168808333Y-118530000D02*
X168808333Y-117580000D01*
X167888333Y-113740000D02*
X167888333Y-117580000D01*
X169728333Y-113740000D02*
X167888333Y-113740000D01*
X169728333Y-117580000D02*
X169728333Y-113740000D01*
X167888333Y-117580000D02*
X169728333Y-117580000D01*
%TO.C,R9*%
X154916666Y-112790000D02*
X154916666Y-113740000D01*
X154916666Y-118530000D02*
X154916666Y-117580000D01*
X153996666Y-113740000D02*
X153996666Y-117580000D01*
X155836666Y-113740000D02*
X153996666Y-113740000D01*
X155836666Y-117580000D02*
X155836666Y-113740000D01*
X153996666Y-117580000D02*
X155836666Y-117580000D01*
%TO.C,R11*%
X121041666Y-112790000D02*
X121041666Y-113740000D01*
X121041666Y-118530000D02*
X121041666Y-117580000D01*
X120121666Y-113740000D02*
X120121666Y-117580000D01*
X121961666Y-113740000D02*
X120121666Y-113740000D01*
X121961666Y-117580000D02*
X121961666Y-113740000D01*
X120121666Y-117580000D02*
X121961666Y-117580000D01*
%TO.C,R8*%
X134933333Y-112790000D02*
X134933333Y-113740000D01*
X134933333Y-118530000D02*
X134933333Y-117580000D01*
X134013333Y-113740000D02*
X134013333Y-117580000D01*
X135853333Y-113740000D02*
X134013333Y-113740000D01*
X135853333Y-117580000D02*
X135853333Y-113740000D01*
X134013333Y-117580000D02*
X135853333Y-117580000D01*
%TO.C,R10*%
X101250000Y-118530000D02*
X101250000Y-117580000D01*
X101250000Y-112790000D02*
X101250000Y-113740000D01*
X102170000Y-117580000D02*
X102170000Y-113740000D01*
X100330000Y-117580000D02*
X102170000Y-117580000D01*
X100330000Y-113740000D02*
X100330000Y-117580000D01*
X102170000Y-113740000D02*
X100330000Y-113740000D01*
%TO.C,R5*%
X150138000Y-154944000D02*
X150138000Y-153994000D01*
X150138000Y-149204000D02*
X150138000Y-150154000D01*
X151058000Y-153994000D02*
X151058000Y-150154000D01*
X149218000Y-153994000D02*
X151058000Y-153994000D01*
X149218000Y-150154000D02*
X149218000Y-153994000D01*
X151058000Y-150154000D02*
X149218000Y-150154000D01*
%TO.C,R3*%
X146336000Y-142296000D02*
X147286000Y-142296000D01*
X152076000Y-142296000D02*
X151126000Y-142296000D01*
X147286000Y-143216000D02*
X151126000Y-143216000D01*
X147286000Y-141376000D02*
X147286000Y-143216000D01*
X151126000Y-141376000D02*
X147286000Y-141376000D01*
X151126000Y-143216000D02*
X151126000Y-141376000D01*
%TO.C,R2*%
X124586000Y-142296000D02*
X125536000Y-142296000D01*
X130326000Y-142296000D02*
X129376000Y-142296000D01*
X125536000Y-143216000D02*
X129376000Y-143216000D01*
X125536000Y-141376000D02*
X125536000Y-143216000D01*
X129376000Y-141376000D02*
X125536000Y-141376000D01*
X129376000Y-143216000D02*
X129376000Y-141376000D01*
%TO.C,R1*%
X102896000Y-142296000D02*
X103846000Y-142296000D01*
X108636000Y-142296000D02*
X107686000Y-142296000D01*
X103846000Y-143216000D02*
X107686000Y-143216000D01*
X103846000Y-141376000D02*
X103846000Y-143216000D01*
X107686000Y-141376000D02*
X103846000Y-141376000D01*
X107686000Y-143216000D02*
X107686000Y-141376000D01*
%TO.C,J1*%
X179850000Y-158778000D02*
X179850000Y-156178000D01*
X194550000Y-158778000D02*
X179850000Y-158778000D01*
X179850000Y-149578000D02*
X181750000Y-149578000D01*
X179850000Y-152278000D02*
X179850000Y-149578000D01*
X194550000Y-149578000D02*
X194550000Y-158778000D01*
X185750000Y-149578000D02*
X194550000Y-149578000D01*
X180700000Y-158978000D02*
X179650000Y-158978000D01*
X179650000Y-157928000D02*
X179650000Y-158978000D01*
%TO.C,D2*%
X184880000Y-117280000D02*
X187120000Y-117280000D01*
X184880000Y-117040000D02*
X187120000Y-117040000D01*
X184880000Y-117160000D02*
X187120000Y-117160000D01*
X186000000Y-112990000D02*
X186000000Y-113640000D01*
X186000000Y-118530000D02*
X186000000Y-117880000D01*
X184880000Y-113640000D02*
X184880000Y-117880000D01*
X187120000Y-113640000D02*
X184880000Y-113640000D01*
X187120000Y-117880000D02*
X187120000Y-113640000D01*
X184880000Y-117880000D02*
X187120000Y-117880000D01*
%TO.C,D1*%
X170534166Y-117280000D02*
X172774166Y-117280000D01*
X170534166Y-117040000D02*
X172774166Y-117040000D01*
X170534166Y-117160000D02*
X172774166Y-117160000D01*
X171654166Y-112990000D02*
X171654166Y-113640000D01*
X171654166Y-118530000D02*
X171654166Y-117880000D01*
X170534166Y-113640000D02*
X170534166Y-117880000D01*
X172774166Y-113640000D02*
X170534166Y-113640000D01*
X172774166Y-117880000D02*
X172774166Y-113640000D01*
X170534166Y-117880000D02*
X172774166Y-117880000D01*
%TO.C,D4*%
X150950833Y-117280000D02*
X153190833Y-117280000D01*
X150950833Y-117040000D02*
X153190833Y-117040000D01*
X150950833Y-117160000D02*
X153190833Y-117160000D01*
X152070833Y-112990000D02*
X152070833Y-113640000D01*
X152070833Y-118530000D02*
X152070833Y-117880000D01*
X150950833Y-113640000D02*
X150950833Y-117880000D01*
X153190833Y-113640000D02*
X150950833Y-113640000D01*
X153190833Y-117880000D02*
X153190833Y-113640000D01*
X150950833Y-117880000D02*
X153190833Y-117880000D01*
%TO.C,D5*%
X117075833Y-117280000D02*
X119315833Y-117280000D01*
X117075833Y-117040000D02*
X119315833Y-117040000D01*
X117075833Y-117160000D02*
X119315833Y-117160000D01*
X118195833Y-112990000D02*
X118195833Y-113640000D01*
X118195833Y-118530000D02*
X118195833Y-117880000D01*
X117075833Y-113640000D02*
X117075833Y-117880000D01*
X119315833Y-113640000D02*
X117075833Y-113640000D01*
X119315833Y-117880000D02*
X119315833Y-113640000D01*
X117075833Y-117880000D02*
X119315833Y-117880000D01*
%TO.C,D3*%
X136659166Y-117280000D02*
X138899166Y-117280000D01*
X136659166Y-117040000D02*
X138899166Y-117040000D01*
X136659166Y-117160000D02*
X138899166Y-117160000D01*
X137779166Y-112990000D02*
X137779166Y-113640000D01*
X137779166Y-118530000D02*
X137779166Y-117880000D01*
X136659166Y-113640000D02*
X136659166Y-117880000D01*
X138899166Y-113640000D02*
X136659166Y-113640000D01*
X138899166Y-117880000D02*
X138899166Y-113640000D01*
X136659166Y-117880000D02*
X138899166Y-117880000D01*
%TO.C,D6*%
X102880000Y-117280000D02*
X105120000Y-117280000D01*
X102880000Y-117040000D02*
X105120000Y-117040000D01*
X102880000Y-117160000D02*
X105120000Y-117160000D01*
X104000000Y-112990000D02*
X104000000Y-113640000D01*
X104000000Y-118530000D02*
X104000000Y-117880000D01*
X102880000Y-113640000D02*
X102880000Y-117880000D01*
X105120000Y-113640000D02*
X102880000Y-113640000D01*
X105120000Y-117880000D02*
X105120000Y-113640000D01*
X102880000Y-117880000D02*
X105120000Y-117880000D01*
%TO.C,C13*%
X174180000Y-106714000D02*
X174180000Y-105040000D01*
X174180000Y-110280000D02*
X174180000Y-108606000D01*
X183420000Y-106714000D02*
X183420000Y-105040000D01*
X183420000Y-110280000D02*
X183420000Y-108606000D01*
X183420000Y-105040000D02*
X174180000Y-105040000D01*
X183420000Y-110280000D02*
X174180000Y-110280000D01*
%TO.C,C12*%
X157242500Y-106714000D02*
X157242500Y-105040000D01*
X157242500Y-110280000D02*
X157242500Y-108606000D01*
X166482500Y-106714000D02*
X166482500Y-105040000D01*
X166482500Y-110280000D02*
X166482500Y-108606000D01*
X166482500Y-105040000D02*
X157242500Y-105040000D01*
X166482500Y-110280000D02*
X157242500Y-110280000D01*
%TO.C,C11*%
X140305000Y-106714000D02*
X140305000Y-105040000D01*
X140305000Y-110280000D02*
X140305000Y-108606000D01*
X149545000Y-106714000D02*
X149545000Y-105040000D01*
X149545000Y-110280000D02*
X149545000Y-108606000D01*
X149545000Y-105040000D02*
X140305000Y-105040000D01*
X149545000Y-110280000D02*
X140305000Y-110280000D01*
%TO.C,C10*%
X123367500Y-106714000D02*
X123367500Y-105040000D01*
X123367500Y-110280000D02*
X123367500Y-108606000D01*
X132607500Y-106714000D02*
X132607500Y-105040000D01*
X132607500Y-110280000D02*
X132607500Y-108606000D01*
X132607500Y-105040000D02*
X123367500Y-105040000D01*
X132607500Y-110280000D02*
X123367500Y-110280000D01*
%TO.C,C9*%
X106430000Y-106714000D02*
X106430000Y-105040000D01*
X106430000Y-110280000D02*
X106430000Y-108606000D01*
X115670000Y-106714000D02*
X115670000Y-105040000D01*
X115670000Y-110280000D02*
X115670000Y-108606000D01*
X115670000Y-105040000D02*
X106430000Y-105040000D01*
X115670000Y-110280000D02*
X106430000Y-110280000D01*
%TO.C,C8*%
X177576000Y-143050000D02*
X177576000Y-141376000D01*
X177576000Y-146616000D02*
X177576000Y-144942000D01*
X186816000Y-143050000D02*
X186816000Y-141376000D01*
X186816000Y-146616000D02*
X186816000Y-144942000D01*
X186816000Y-141376000D02*
X177576000Y-141376000D01*
X186816000Y-146616000D02*
X177576000Y-146616000D01*
%TO.C,C7*%
X155826000Y-143050000D02*
X155826000Y-141376000D01*
X155826000Y-146616000D02*
X155826000Y-144942000D01*
X165066000Y-143050000D02*
X165066000Y-141376000D01*
X165066000Y-146616000D02*
X165066000Y-144942000D01*
X165066000Y-141376000D02*
X155826000Y-141376000D01*
X165066000Y-146616000D02*
X155826000Y-146616000D01*
%TO.C,C6*%
X134076000Y-143050000D02*
X134076000Y-141376000D01*
X134076000Y-146616000D02*
X134076000Y-144942000D01*
X143316000Y-143050000D02*
X143316000Y-141376000D01*
X143316000Y-146616000D02*
X143316000Y-144942000D01*
X143316000Y-141376000D02*
X134076000Y-141376000D01*
X143316000Y-146616000D02*
X134076000Y-146616000D01*
%TO.C,C5*%
X111868000Y-143050000D02*
X111868000Y-141376000D01*
X111868000Y-146616000D02*
X111868000Y-144942000D01*
X121108000Y-143050000D02*
X121108000Y-141376000D01*
X121108000Y-146616000D02*
X121108000Y-144942000D01*
X121108000Y-141376000D02*
X111868000Y-141376000D01*
X121108000Y-146616000D02*
X111868000Y-146616000D01*
%TO.C,C4*%
X108221000Y-151588000D02*
X108156000Y-151588000D01*
X110396000Y-151588000D02*
X110331000Y-151588000D01*
X108221000Y-148348000D02*
X108156000Y-148348000D01*
X110396000Y-148348000D02*
X110331000Y-148348000D01*
X108156000Y-148348000D02*
X108156000Y-151588000D01*
X110396000Y-148348000D02*
X110396000Y-151588000D01*
%TO.C,C3*%
X101201000Y-151588000D02*
X101136000Y-151588000D01*
X103376000Y-151588000D02*
X103311000Y-151588000D01*
X101201000Y-148348000D02*
X101136000Y-148348000D01*
X103376000Y-148348000D02*
X103311000Y-148348000D01*
X101136000Y-148348000D02*
X101136000Y-151588000D01*
X103376000Y-148348000D02*
X103376000Y-151588000D01*
%TO.C,C2*%
X159696000Y-148854500D02*
X161370000Y-148854500D01*
X156130000Y-148854500D02*
X157804000Y-148854500D01*
X159696000Y-158094500D02*
X161370000Y-158094500D01*
X156130000Y-158094500D02*
X157804000Y-158094500D01*
X161370000Y-158094500D02*
X161370000Y-148854500D01*
X156130000Y-158094500D02*
X156130000Y-148854500D01*
%TO.C,C1*%
X174130000Y-149854500D02*
X176870000Y-149854500D01*
X174130000Y-157094500D02*
X176870000Y-157094500D01*
X176870000Y-157094500D02*
X176870000Y-149854500D01*
X174130000Y-157094500D02*
X174130000Y-149854500D01*
%TO.C,U7*%
D11*
X161100595Y-119509880D02*
X161100595Y-120319404D01*
X161148214Y-120414642D01*
X161195833Y-120462261D01*
X161291071Y-120509880D01*
X161481547Y-120509880D01*
X161576785Y-120462261D01*
X161624404Y-120414642D01*
X161672023Y-120319404D01*
X161672023Y-119509880D01*
X162052976Y-119509880D02*
X162719642Y-119509880D01*
X162291071Y-120509880D01*
%TO.C,R15*%
X171248142Y-90622380D02*
X170914809Y-90146190D01*
X170676714Y-90622380D02*
X170676714Y-89622380D01*
X171057666Y-89622380D01*
X171152904Y-89670000D01*
X171200523Y-89717619D01*
X171248142Y-89812857D01*
X171248142Y-89955714D01*
X171200523Y-90050952D01*
X171152904Y-90098571D01*
X171057666Y-90146190D01*
X170676714Y-90146190D01*
X172200523Y-90622380D02*
X171629095Y-90622380D01*
X171914809Y-90622380D02*
X171914809Y-89622380D01*
X171819571Y-89765238D01*
X171724333Y-89860476D01*
X171629095Y-89908095D01*
X173105285Y-89622380D02*
X172629095Y-89622380D01*
X172581476Y-90098571D01*
X172629095Y-90050952D01*
X172724333Y-90003333D01*
X172962428Y-90003333D01*
X173057666Y-90050952D01*
X173105285Y-90098571D01*
X173152904Y-90193809D01*
X173152904Y-90431904D01*
X173105285Y-90527142D01*
X173057666Y-90574761D01*
X172962428Y-90622380D01*
X172724333Y-90622380D01*
X172629095Y-90574761D01*
X172581476Y-90527142D01*
%TO.C,U2*%
X111506095Y-134680880D02*
X111506095Y-135490404D01*
X111553714Y-135585642D01*
X111601333Y-135633261D01*
X111696571Y-135680880D01*
X111887047Y-135680880D01*
X111982285Y-135633261D01*
X112029904Y-135585642D01*
X112077523Y-135490404D01*
X112077523Y-134680880D01*
X112506095Y-134776119D02*
X112553714Y-134728500D01*
X112648952Y-134680880D01*
X112887047Y-134680880D01*
X112982285Y-134728500D01*
X113029904Y-134776119D01*
X113077523Y-134871357D01*
X113077523Y-134966595D01*
X113029904Y-135109452D01*
X112458476Y-135680880D01*
X113077523Y-135680880D01*
%TO.C,U4*%
X154184095Y-134680880D02*
X154184095Y-135490404D01*
X154231714Y-135585642D01*
X154279333Y-135633261D01*
X154374571Y-135680880D01*
X154565047Y-135680880D01*
X154660285Y-135633261D01*
X154707904Y-135585642D01*
X154755523Y-135490404D01*
X154755523Y-134680880D01*
X155660285Y-135014214D02*
X155660285Y-135680880D01*
X155422190Y-134633261D02*
X155184095Y-135347547D01*
X155803142Y-135347547D01*
%TO.C,R18*%
X117467142Y-64206380D02*
X117133809Y-63730190D01*
X116895714Y-64206380D02*
X116895714Y-63206380D01*
X117276666Y-63206380D01*
X117371904Y-63254000D01*
X117419523Y-63301619D01*
X117467142Y-63396857D01*
X117467142Y-63539714D01*
X117419523Y-63634952D01*
X117371904Y-63682571D01*
X117276666Y-63730190D01*
X116895714Y-63730190D01*
X118419523Y-64206380D02*
X117848095Y-64206380D01*
X118133809Y-64206380D02*
X118133809Y-63206380D01*
X118038571Y-63349238D01*
X117943333Y-63444476D01*
X117848095Y-63492095D01*
X118990952Y-63634952D02*
X118895714Y-63587333D01*
X118848095Y-63539714D01*
X118800476Y-63444476D01*
X118800476Y-63396857D01*
X118848095Y-63301619D01*
X118895714Y-63254000D01*
X118990952Y-63206380D01*
X119181428Y-63206380D01*
X119276666Y-63254000D01*
X119324285Y-63301619D01*
X119371904Y-63396857D01*
X119371904Y-63444476D01*
X119324285Y-63539714D01*
X119276666Y-63587333D01*
X119181428Y-63634952D01*
X118990952Y-63634952D01*
X118895714Y-63682571D01*
X118848095Y-63730190D01*
X118800476Y-63825428D01*
X118800476Y-64015904D01*
X118848095Y-64111142D01*
X118895714Y-64158761D01*
X118990952Y-64206380D01*
X119181428Y-64206380D01*
X119276666Y-64158761D01*
X119324285Y-64111142D01*
X119371904Y-64015904D01*
X119371904Y-63825428D01*
X119324285Y-63730190D01*
X119276666Y-63682571D01*
X119181428Y-63634952D01*
%TO.C,R16*%
X144393642Y-64206380D02*
X144060309Y-63730190D01*
X143822214Y-64206380D02*
X143822214Y-63206380D01*
X144203166Y-63206380D01*
X144298404Y-63254000D01*
X144346023Y-63301619D01*
X144393642Y-63396857D01*
X144393642Y-63539714D01*
X144346023Y-63634952D01*
X144298404Y-63682571D01*
X144203166Y-63730190D01*
X143822214Y-63730190D01*
X145346023Y-64206380D02*
X144774595Y-64206380D01*
X145060309Y-64206380D02*
X145060309Y-63206380D01*
X144965071Y-63349238D01*
X144869833Y-63444476D01*
X144774595Y-63492095D01*
X146203166Y-63206380D02*
X146012690Y-63206380D01*
X145917452Y-63254000D01*
X145869833Y-63301619D01*
X145774595Y-63444476D01*
X145726976Y-63634952D01*
X145726976Y-64015904D01*
X145774595Y-64111142D01*
X145822214Y-64158761D01*
X145917452Y-64206380D01*
X146107928Y-64206380D01*
X146203166Y-64158761D01*
X146250785Y-64111142D01*
X146298404Y-64015904D01*
X146298404Y-63777809D01*
X146250785Y-63682571D01*
X146203166Y-63634952D01*
X146107928Y-63587333D01*
X145917452Y-63587333D01*
X145822214Y-63634952D01*
X145774595Y-63682571D01*
X145726976Y-63777809D01*
%TO.C,R14*%
X171188142Y-64206380D02*
X170854809Y-63730190D01*
X170616714Y-64206380D02*
X170616714Y-63206380D01*
X170997666Y-63206380D01*
X171092904Y-63254000D01*
X171140523Y-63301619D01*
X171188142Y-63396857D01*
X171188142Y-63539714D01*
X171140523Y-63634952D01*
X171092904Y-63682571D01*
X170997666Y-63730190D01*
X170616714Y-63730190D01*
X172140523Y-64206380D02*
X171569095Y-64206380D01*
X171854809Y-64206380D02*
X171854809Y-63206380D01*
X171759571Y-63349238D01*
X171664333Y-63444476D01*
X171569095Y-63492095D01*
X172997666Y-63539714D02*
X172997666Y-64206380D01*
X172759571Y-63158761D02*
X172521476Y-63873047D01*
X173140523Y-63873047D01*
%TO.C,R12*%
X191968380Y-89134857D02*
X191492190Y-89468190D01*
X191968380Y-89706285D02*
X190968380Y-89706285D01*
X190968380Y-89325333D01*
X191016000Y-89230095D01*
X191063619Y-89182476D01*
X191158857Y-89134857D01*
X191301714Y-89134857D01*
X191396952Y-89182476D01*
X191444571Y-89230095D01*
X191492190Y-89325333D01*
X191492190Y-89706285D01*
X191968380Y-88182476D02*
X191968380Y-88753904D01*
X191968380Y-88468190D02*
X190968380Y-88468190D01*
X191111238Y-88563428D01*
X191206476Y-88658666D01*
X191254095Y-88753904D01*
X191063619Y-87801523D02*
X191016000Y-87753904D01*
X190968380Y-87658666D01*
X190968380Y-87420571D01*
X191016000Y-87325333D01*
X191063619Y-87277714D01*
X191158857Y-87230095D01*
X191254095Y-87230095D01*
X191396952Y-87277714D01*
X191968380Y-87849142D01*
X191968380Y-87230095D01*
%TO.C,U3*%
X132434095Y-134680880D02*
X132434095Y-135490404D01*
X132481714Y-135585642D01*
X132529333Y-135633261D01*
X132624571Y-135680880D01*
X132815047Y-135680880D01*
X132910285Y-135633261D01*
X132957904Y-135585642D01*
X133005523Y-135490404D01*
X133005523Y-134680880D01*
X133386476Y-134680880D02*
X134005523Y-134680880D01*
X133672190Y-135061833D01*
X133815047Y-135061833D01*
X133910285Y-135109452D01*
X133957904Y-135157071D01*
X134005523Y-135252309D01*
X134005523Y-135490404D01*
X133957904Y-135585642D01*
X133910285Y-135633261D01*
X133815047Y-135680880D01*
X133529333Y-135680880D01*
X133434095Y-135633261D01*
X133386476Y-135585642D01*
%TO.C,R4*%
X120594380Y-152180666D02*
X120118190Y-152514000D01*
X120594380Y-152752095D02*
X119594380Y-152752095D01*
X119594380Y-152371142D01*
X119642000Y-152275904D01*
X119689619Y-152228285D01*
X119784857Y-152180666D01*
X119927714Y-152180666D01*
X120022952Y-152228285D01*
X120070571Y-152275904D01*
X120118190Y-152371142D01*
X120118190Y-152752095D01*
X119927714Y-151323523D02*
X120594380Y-151323523D01*
X119546761Y-151561619D02*
X120261047Y-151799714D01*
X120261047Y-151180666D01*
%TO.C,U10*%
X109811904Y-119509880D02*
X109811904Y-120319404D01*
X109859523Y-120414642D01*
X109907142Y-120462261D01*
X110002380Y-120509880D01*
X110192857Y-120509880D01*
X110288095Y-120462261D01*
X110335714Y-120414642D01*
X110383333Y-120319404D01*
X110383333Y-119509880D01*
X111383333Y-120509880D02*
X110811904Y-120509880D01*
X111097619Y-120509880D02*
X111097619Y-119509880D01*
X111002380Y-119652738D01*
X110907142Y-119747976D01*
X110811904Y-119795595D01*
X112002380Y-119509880D02*
X112097619Y-119509880D01*
X112192857Y-119557500D01*
X112240476Y-119605119D01*
X112288095Y-119700357D01*
X112335714Y-119890833D01*
X112335714Y-120128928D01*
X112288095Y-120319404D01*
X112240476Y-120414642D01*
X112192857Y-120462261D01*
X112097619Y-120509880D01*
X112002380Y-120509880D01*
X111907142Y-120462261D01*
X111859523Y-120414642D01*
X111811904Y-120319404D01*
X111764285Y-120128928D01*
X111764285Y-119890833D01*
X111811904Y-119700357D01*
X111859523Y-119605119D01*
X111907142Y-119557500D01*
X112002380Y-119509880D01*
%TO.C,U1*%
X167028095Y-151344380D02*
X167028095Y-152153904D01*
X167075714Y-152249142D01*
X167123333Y-152296761D01*
X167218571Y-152344380D01*
X167409047Y-152344380D01*
X167504285Y-152296761D01*
X167551904Y-152249142D01*
X167599523Y-152153904D01*
X167599523Y-151344380D01*
X168599523Y-152344380D02*
X168028095Y-152344380D01*
X168313809Y-152344380D02*
X168313809Y-151344380D01*
X168218571Y-151487238D01*
X168123333Y-151582476D01*
X168028095Y-151630095D01*
%TO.C,U17*%
X132799237Y-98454880D02*
X132799237Y-99264404D01*
X132846856Y-99359642D01*
X132894475Y-99407261D01*
X132989713Y-99454880D01*
X133180190Y-99454880D01*
X133275428Y-99407261D01*
X133323047Y-99359642D01*
X133370666Y-99264404D01*
X133370666Y-98454880D01*
X134370666Y-99454880D02*
X133799237Y-99454880D01*
X134084952Y-99454880D02*
X134084952Y-98454880D01*
X133989713Y-98597738D01*
X133894475Y-98692976D01*
X133799237Y-98740595D01*
X134703999Y-98454880D02*
X135370666Y-98454880D01*
X134942094Y-99454880D01*
%TO.C,U13*%
X176825904Y-98454880D02*
X176825904Y-99264404D01*
X176873523Y-99359642D01*
X176921142Y-99407261D01*
X177016380Y-99454880D01*
X177206857Y-99454880D01*
X177302095Y-99407261D01*
X177349714Y-99359642D01*
X177397333Y-99264404D01*
X177397333Y-98454880D01*
X178397333Y-99454880D02*
X177825904Y-99454880D01*
X178111619Y-99454880D02*
X178111619Y-98454880D01*
X178016380Y-98597738D01*
X177921142Y-98692976D01*
X177825904Y-98740595D01*
X178730666Y-98454880D02*
X179349714Y-98454880D01*
X179016380Y-98835833D01*
X179159238Y-98835833D01*
X179254476Y-98883452D01*
X179302095Y-98931071D01*
X179349714Y-99026309D01*
X179349714Y-99264404D01*
X179302095Y-99359642D01*
X179254476Y-99407261D01*
X179159238Y-99454880D01*
X178873523Y-99454880D01*
X178778285Y-99407261D01*
X178730666Y-99359642D01*
%TO.C,U15*%
X110785904Y-98454880D02*
X110785904Y-99264404D01*
X110833523Y-99359642D01*
X110881142Y-99407261D01*
X110976380Y-99454880D01*
X111166857Y-99454880D01*
X111262095Y-99407261D01*
X111309714Y-99359642D01*
X111357333Y-99264404D01*
X111357333Y-98454880D01*
X112357333Y-99454880D02*
X111785904Y-99454880D01*
X112071619Y-99454880D02*
X112071619Y-98454880D01*
X111976380Y-98597738D01*
X111881142Y-98692976D01*
X111785904Y-98740595D01*
X113262095Y-98454880D02*
X112785904Y-98454880D01*
X112738285Y-98931071D01*
X112785904Y-98883452D01*
X112881142Y-98835833D01*
X113119238Y-98835833D01*
X113214476Y-98883452D01*
X113262095Y-98931071D01*
X113309714Y-99026309D01*
X113309714Y-99264404D01*
X113262095Y-99359642D01*
X113214476Y-99407261D01*
X113119238Y-99454880D01*
X112881142Y-99454880D01*
X112785904Y-99407261D01*
X112738285Y-99359642D01*
%TO.C,U11*%
X154812570Y-98454880D02*
X154812570Y-99264404D01*
X154860189Y-99359642D01*
X154907808Y-99407261D01*
X155003046Y-99454880D01*
X155193523Y-99454880D01*
X155288761Y-99407261D01*
X155336380Y-99359642D01*
X155383999Y-99264404D01*
X155383999Y-98454880D01*
X156383999Y-99454880D02*
X155812570Y-99454880D01*
X156098285Y-99454880D02*
X156098285Y-98454880D01*
X156003046Y-98597738D01*
X155907808Y-98692976D01*
X155812570Y-98740595D01*
X157336380Y-99454880D02*
X156764951Y-99454880D01*
X157050666Y-99454880D02*
X157050666Y-98454880D01*
X156955427Y-98597738D01*
X156860189Y-98692976D01*
X156764951Y-98740595D01*
%TO.C,U6*%
X178038095Y-119509880D02*
X178038095Y-120319404D01*
X178085714Y-120414642D01*
X178133333Y-120462261D01*
X178228571Y-120509880D01*
X178419047Y-120509880D01*
X178514285Y-120462261D01*
X178561904Y-120414642D01*
X178609523Y-120319404D01*
X178609523Y-119509880D01*
X179514285Y-119509880D02*
X179323809Y-119509880D01*
X179228571Y-119557500D01*
X179180952Y-119605119D01*
X179085714Y-119747976D01*
X179038095Y-119938452D01*
X179038095Y-120319404D01*
X179085714Y-120414642D01*
X179133333Y-120462261D01*
X179228571Y-120509880D01*
X179419047Y-120509880D01*
X179514285Y-120462261D01*
X179561904Y-120414642D01*
X179609523Y-120319404D01*
X179609523Y-120081309D01*
X179561904Y-119986071D01*
X179514285Y-119938452D01*
X179419047Y-119890833D01*
X179228571Y-119890833D01*
X179133333Y-119938452D01*
X179085714Y-119986071D01*
X179038095Y-120081309D01*
%TO.C,U9*%
X144163095Y-119509880D02*
X144163095Y-120319404D01*
X144210714Y-120414642D01*
X144258333Y-120462261D01*
X144353571Y-120509880D01*
X144544047Y-120509880D01*
X144639285Y-120462261D01*
X144686904Y-120414642D01*
X144734523Y-120319404D01*
X144734523Y-119509880D01*
X145258333Y-120509880D02*
X145448809Y-120509880D01*
X145544047Y-120462261D01*
X145591666Y-120414642D01*
X145686904Y-120271785D01*
X145734523Y-120081309D01*
X145734523Y-119700357D01*
X145686904Y-119605119D01*
X145639285Y-119557500D01*
X145544047Y-119509880D01*
X145353571Y-119509880D01*
X145258333Y-119557500D01*
X145210714Y-119605119D01*
X145163095Y-119700357D01*
X145163095Y-119938452D01*
X145210714Y-120033690D01*
X145258333Y-120081309D01*
X145353571Y-120128928D01*
X145544047Y-120128928D01*
X145639285Y-120081309D01*
X145686904Y-120033690D01*
X145734523Y-119938452D01*
%TO.C,U8*%
X127225595Y-119509880D02*
X127225595Y-120319404D01*
X127273214Y-120414642D01*
X127320833Y-120462261D01*
X127416071Y-120509880D01*
X127606547Y-120509880D01*
X127701785Y-120462261D01*
X127749404Y-120414642D01*
X127797023Y-120319404D01*
X127797023Y-119509880D01*
X128416071Y-119938452D02*
X128320833Y-119890833D01*
X128273214Y-119843214D01*
X128225595Y-119747976D01*
X128225595Y-119700357D01*
X128273214Y-119605119D01*
X128320833Y-119557500D01*
X128416071Y-119509880D01*
X128606547Y-119509880D01*
X128701785Y-119557500D01*
X128749404Y-119605119D01*
X128797023Y-119700357D01*
X128797023Y-119747976D01*
X128749404Y-119843214D01*
X128701785Y-119890833D01*
X128606547Y-119938452D01*
X128416071Y-119938452D01*
X128320833Y-119986071D01*
X128273214Y-120033690D01*
X128225595Y-120128928D01*
X128225595Y-120319404D01*
X128273214Y-120414642D01*
X128320833Y-120462261D01*
X128416071Y-120509880D01*
X128606547Y-120509880D01*
X128701785Y-120462261D01*
X128749404Y-120414642D01*
X128797023Y-120319404D01*
X128797023Y-120128928D01*
X128749404Y-120033690D01*
X128701785Y-119986071D01*
X128606547Y-119938452D01*
%TO.C,U5*%
X175934095Y-134680880D02*
X175934095Y-135490404D01*
X175981714Y-135585642D01*
X176029333Y-135633261D01*
X176124571Y-135680880D01*
X176315047Y-135680880D01*
X176410285Y-135633261D01*
X176457904Y-135585642D01*
X176505523Y-135490404D01*
X176505523Y-134680880D01*
X177457904Y-134680880D02*
X176981714Y-134680880D01*
X176934095Y-135157071D01*
X176981714Y-135109452D01*
X177076952Y-135061833D01*
X177315047Y-135061833D01*
X177410285Y-135109452D01*
X177457904Y-135157071D01*
X177505523Y-135252309D01*
X177505523Y-135490404D01*
X177457904Y-135585642D01*
X177410285Y-135633261D01*
X177315047Y-135680880D01*
X177076952Y-135680880D01*
X176981714Y-135633261D01*
X176934095Y-135585642D01*
%TO.C,R47*%
X137000880Y-82839857D02*
X136524690Y-83173190D01*
X137000880Y-83411285D02*
X136000880Y-83411285D01*
X136000880Y-83030333D01*
X136048500Y-82935095D01*
X136096119Y-82887476D01*
X136191357Y-82839857D01*
X136334214Y-82839857D01*
X136429452Y-82887476D01*
X136477071Y-82935095D01*
X136524690Y-83030333D01*
X136524690Y-83411285D01*
X136334214Y-81982714D02*
X137000880Y-81982714D01*
X135953261Y-82220809D02*
X136667547Y-82458904D01*
X136667547Y-81839857D01*
X136000880Y-81554142D02*
X136000880Y-80887476D01*
X137000880Y-81316047D01*
%TO.C,R45*%
X137000880Y-72614857D02*
X136524690Y-72948190D01*
X137000880Y-73186285D02*
X136000880Y-73186285D01*
X136000880Y-72805333D01*
X136048500Y-72710095D01*
X136096119Y-72662476D01*
X136191357Y-72614857D01*
X136334214Y-72614857D01*
X136429452Y-72662476D01*
X136477071Y-72710095D01*
X136524690Y-72805333D01*
X136524690Y-73186285D01*
X136334214Y-71757714D02*
X137000880Y-71757714D01*
X135953261Y-71995809D02*
X136667547Y-72233904D01*
X136667547Y-71614857D01*
X136000880Y-70757714D02*
X136000880Y-71233904D01*
X136477071Y-71281523D01*
X136429452Y-71233904D01*
X136381833Y-71138666D01*
X136381833Y-70900571D01*
X136429452Y-70805333D01*
X136477071Y-70757714D01*
X136572309Y-70710095D01*
X136810404Y-70710095D01*
X136905642Y-70757714D01*
X136953261Y-70805333D01*
X137000880Y-70900571D01*
X137000880Y-71138666D01*
X136953261Y-71233904D01*
X136905642Y-71281523D01*
%TO.C,R43*%
X145486380Y-72614857D02*
X145010190Y-72948190D01*
X145486380Y-73186285D02*
X144486380Y-73186285D01*
X144486380Y-72805333D01*
X144534000Y-72710095D01*
X144581619Y-72662476D01*
X144676857Y-72614857D01*
X144819714Y-72614857D01*
X144914952Y-72662476D01*
X144962571Y-72710095D01*
X145010190Y-72805333D01*
X145010190Y-73186285D01*
X144819714Y-71757714D02*
X145486380Y-71757714D01*
X144438761Y-71995809D02*
X145153047Y-72233904D01*
X145153047Y-71614857D01*
X144486380Y-71329142D02*
X144486380Y-70710095D01*
X144867333Y-71043428D01*
X144867333Y-70900571D01*
X144914952Y-70805333D01*
X144962571Y-70757714D01*
X145057809Y-70710095D01*
X145295904Y-70710095D01*
X145391142Y-70757714D01*
X145438761Y-70805333D01*
X145486380Y-70900571D01*
X145486380Y-71186285D01*
X145438761Y-71281523D01*
X145391142Y-71329142D01*
%TO.C,R41*%
X142657880Y-82839857D02*
X142181690Y-83173190D01*
X142657880Y-83411285D02*
X141657880Y-83411285D01*
X141657880Y-83030333D01*
X141705500Y-82935095D01*
X141753119Y-82887476D01*
X141848357Y-82839857D01*
X141991214Y-82839857D01*
X142086452Y-82887476D01*
X142134071Y-82935095D01*
X142181690Y-83030333D01*
X142181690Y-83411285D01*
X141991214Y-81982714D02*
X142657880Y-81982714D01*
X141610261Y-82220809D02*
X142324547Y-82458904D01*
X142324547Y-81839857D01*
X142657880Y-80935095D02*
X142657880Y-81506523D01*
X142657880Y-81220809D02*
X141657880Y-81220809D01*
X141800738Y-81316047D01*
X141895976Y-81411285D01*
X141943595Y-81506523D01*
%TO.C,R39*%
X142403880Y-72614857D02*
X141927690Y-72948190D01*
X142403880Y-73186285D02*
X141403880Y-73186285D01*
X141403880Y-72805333D01*
X141451500Y-72710095D01*
X141499119Y-72662476D01*
X141594357Y-72614857D01*
X141737214Y-72614857D01*
X141832452Y-72662476D01*
X141880071Y-72710095D01*
X141927690Y-72805333D01*
X141927690Y-73186285D01*
X141403880Y-72281523D02*
X141403880Y-71662476D01*
X141784833Y-71995809D01*
X141784833Y-71852952D01*
X141832452Y-71757714D01*
X141880071Y-71710095D01*
X141975309Y-71662476D01*
X142213404Y-71662476D01*
X142308642Y-71710095D01*
X142356261Y-71757714D01*
X142403880Y-71852952D01*
X142403880Y-72138666D01*
X142356261Y-72233904D01*
X142308642Y-72281523D01*
X142403880Y-71186285D02*
X142403880Y-70995809D01*
X142356261Y-70900571D01*
X142308642Y-70852952D01*
X142165785Y-70757714D01*
X141975309Y-70710095D01*
X141594357Y-70710095D01*
X141499119Y-70757714D01*
X141451500Y-70805333D01*
X141403880Y-70900571D01*
X141403880Y-71091047D01*
X141451500Y-71186285D01*
X141499119Y-71233904D01*
X141594357Y-71281523D01*
X141832452Y-71281523D01*
X141927690Y-71233904D01*
X141975309Y-71186285D01*
X142022928Y-71091047D01*
X142022928Y-70900571D01*
X141975309Y-70805333D01*
X141927690Y-70757714D01*
X141832452Y-70710095D01*
%TO.C,R37*%
X139829380Y-82839857D02*
X139353190Y-83173190D01*
X139829380Y-83411285D02*
X138829380Y-83411285D01*
X138829380Y-83030333D01*
X138877000Y-82935095D01*
X138924619Y-82887476D01*
X139019857Y-82839857D01*
X139162714Y-82839857D01*
X139257952Y-82887476D01*
X139305571Y-82935095D01*
X139353190Y-83030333D01*
X139353190Y-83411285D01*
X138829380Y-82506523D02*
X138829380Y-81887476D01*
X139210333Y-82220809D01*
X139210333Y-82077952D01*
X139257952Y-81982714D01*
X139305571Y-81935095D01*
X139400809Y-81887476D01*
X139638904Y-81887476D01*
X139734142Y-81935095D01*
X139781761Y-81982714D01*
X139829380Y-82077952D01*
X139829380Y-82363666D01*
X139781761Y-82458904D01*
X139734142Y-82506523D01*
X138829380Y-81554142D02*
X138829380Y-80887476D01*
X139829380Y-81316047D01*
%TO.C,R35*%
X139829380Y-72614857D02*
X139353190Y-72948190D01*
X139829380Y-73186285D02*
X138829380Y-73186285D01*
X138829380Y-72805333D01*
X138877000Y-72710095D01*
X138924619Y-72662476D01*
X139019857Y-72614857D01*
X139162714Y-72614857D01*
X139257952Y-72662476D01*
X139305571Y-72710095D01*
X139353190Y-72805333D01*
X139353190Y-73186285D01*
X138829380Y-72281523D02*
X138829380Y-71662476D01*
X139210333Y-71995809D01*
X139210333Y-71852952D01*
X139257952Y-71757714D01*
X139305571Y-71710095D01*
X139400809Y-71662476D01*
X139638904Y-71662476D01*
X139734142Y-71710095D01*
X139781761Y-71757714D01*
X139829380Y-71852952D01*
X139829380Y-72138666D01*
X139781761Y-72233904D01*
X139734142Y-72281523D01*
X138829380Y-70757714D02*
X138829380Y-71233904D01*
X139305571Y-71281523D01*
X139257952Y-71233904D01*
X139210333Y-71138666D01*
X139210333Y-70900571D01*
X139257952Y-70805333D01*
X139305571Y-70757714D01*
X139400809Y-70710095D01*
X139638904Y-70710095D01*
X139734142Y-70757714D01*
X139781761Y-70805333D01*
X139829380Y-70900571D01*
X139829380Y-71138666D01*
X139781761Y-71233904D01*
X139734142Y-71281523D01*
%TO.C,R33*%
X169997380Y-82839857D02*
X169521190Y-83173190D01*
X169997380Y-83411285D02*
X168997380Y-83411285D01*
X168997380Y-83030333D01*
X169045000Y-82935095D01*
X169092619Y-82887476D01*
X169187857Y-82839857D01*
X169330714Y-82839857D01*
X169425952Y-82887476D01*
X169473571Y-82935095D01*
X169521190Y-83030333D01*
X169521190Y-83411285D01*
X168997380Y-82506523D02*
X168997380Y-81887476D01*
X169378333Y-82220809D01*
X169378333Y-82077952D01*
X169425952Y-81982714D01*
X169473571Y-81935095D01*
X169568809Y-81887476D01*
X169806904Y-81887476D01*
X169902142Y-81935095D01*
X169949761Y-81982714D01*
X169997380Y-82077952D01*
X169997380Y-82363666D01*
X169949761Y-82458904D01*
X169902142Y-82506523D01*
X168997380Y-81554142D02*
X168997380Y-80935095D01*
X169378333Y-81268428D01*
X169378333Y-81125571D01*
X169425952Y-81030333D01*
X169473571Y-80982714D01*
X169568809Y-80935095D01*
X169806904Y-80935095D01*
X169902142Y-80982714D01*
X169949761Y-81030333D01*
X169997380Y-81125571D01*
X169997380Y-81411285D01*
X169949761Y-81506523D01*
X169902142Y-81554142D01*
%TO.C,R31*%
X169991880Y-72614857D02*
X169515690Y-72948190D01*
X169991880Y-73186285D02*
X168991880Y-73186285D01*
X168991880Y-72805333D01*
X169039500Y-72710095D01*
X169087119Y-72662476D01*
X169182357Y-72614857D01*
X169325214Y-72614857D01*
X169420452Y-72662476D01*
X169468071Y-72710095D01*
X169515690Y-72805333D01*
X169515690Y-73186285D01*
X168991880Y-72281523D02*
X168991880Y-71662476D01*
X169372833Y-71995809D01*
X169372833Y-71852952D01*
X169420452Y-71757714D01*
X169468071Y-71710095D01*
X169563309Y-71662476D01*
X169801404Y-71662476D01*
X169896642Y-71710095D01*
X169944261Y-71757714D01*
X169991880Y-71852952D01*
X169991880Y-72138666D01*
X169944261Y-72233904D01*
X169896642Y-72281523D01*
X169991880Y-70710095D02*
X169991880Y-71281523D01*
X169991880Y-70995809D02*
X168991880Y-70995809D01*
X169134738Y-71091047D01*
X169229976Y-71186285D01*
X169277595Y-71281523D01*
%TO.C,R29*%
X191968380Y-77727357D02*
X191492190Y-78060690D01*
X191968380Y-78298785D02*
X190968380Y-78298785D01*
X190968380Y-77917833D01*
X191016000Y-77822595D01*
X191063619Y-77774976D01*
X191158857Y-77727357D01*
X191301714Y-77727357D01*
X191396952Y-77774976D01*
X191444571Y-77822595D01*
X191492190Y-77917833D01*
X191492190Y-78298785D01*
X191063619Y-77346404D02*
X191016000Y-77298785D01*
X190968380Y-77203547D01*
X190968380Y-76965452D01*
X191016000Y-76870214D01*
X191063619Y-76822595D01*
X191158857Y-76774976D01*
X191254095Y-76774976D01*
X191396952Y-76822595D01*
X191968380Y-77394023D01*
X191968380Y-76774976D01*
X191968380Y-76298785D02*
X191968380Y-76108309D01*
X191920761Y-76013071D01*
X191873142Y-75965452D01*
X191730285Y-75870214D01*
X191539809Y-75822595D01*
X191158857Y-75822595D01*
X191063619Y-75870214D01*
X191016000Y-75917833D01*
X190968380Y-76013071D01*
X190968380Y-76203547D01*
X191016000Y-76298785D01*
X191063619Y-76346404D01*
X191158857Y-76394023D01*
X191396952Y-76394023D01*
X191492190Y-76346404D01*
X191539809Y-76298785D01*
X191587428Y-76203547D01*
X191587428Y-76013071D01*
X191539809Y-75917833D01*
X191492190Y-75870214D01*
X191396952Y-75822595D01*
%TO.C,R27*%
X174574880Y-82839857D02*
X174098690Y-83173190D01*
X174574880Y-83411285D02*
X173574880Y-83411285D01*
X173574880Y-83030333D01*
X173622500Y-82935095D01*
X173670119Y-82887476D01*
X173765357Y-82839857D01*
X173908214Y-82839857D01*
X174003452Y-82887476D01*
X174051071Y-82935095D01*
X174098690Y-83030333D01*
X174098690Y-83411285D01*
X173670119Y-82458904D02*
X173622500Y-82411285D01*
X173574880Y-82316047D01*
X173574880Y-82077952D01*
X173622500Y-81982714D01*
X173670119Y-81935095D01*
X173765357Y-81887476D01*
X173860595Y-81887476D01*
X174003452Y-81935095D01*
X174574880Y-82506523D01*
X174574880Y-81887476D01*
X173574880Y-81554142D02*
X173574880Y-80887476D01*
X174574880Y-81316047D01*
%TO.C,R25*%
X174574880Y-72614857D02*
X174098690Y-72948190D01*
X174574880Y-73186285D02*
X173574880Y-73186285D01*
X173574880Y-72805333D01*
X173622500Y-72710095D01*
X173670119Y-72662476D01*
X173765357Y-72614857D01*
X173908214Y-72614857D01*
X174003452Y-72662476D01*
X174051071Y-72710095D01*
X174098690Y-72805333D01*
X174098690Y-73186285D01*
X173670119Y-72233904D02*
X173622500Y-72186285D01*
X173574880Y-72091047D01*
X173574880Y-71852952D01*
X173622500Y-71757714D01*
X173670119Y-71710095D01*
X173765357Y-71662476D01*
X173860595Y-71662476D01*
X174003452Y-71710095D01*
X174574880Y-72281523D01*
X174574880Y-71662476D01*
X173574880Y-70757714D02*
X173574880Y-71233904D01*
X174051071Y-71281523D01*
X174003452Y-71233904D01*
X173955833Y-71138666D01*
X173955833Y-70900571D01*
X174003452Y-70805333D01*
X174051071Y-70757714D01*
X174146309Y-70710095D01*
X174384404Y-70710095D01*
X174479642Y-70757714D01*
X174527261Y-70805333D01*
X174574880Y-70900571D01*
X174574880Y-71138666D01*
X174527261Y-71233904D01*
X174479642Y-71281523D01*
%TO.C,R23*%
X172283380Y-82839857D02*
X171807190Y-83173190D01*
X172283380Y-83411285D02*
X171283380Y-83411285D01*
X171283380Y-83030333D01*
X171331000Y-82935095D01*
X171378619Y-82887476D01*
X171473857Y-82839857D01*
X171616714Y-82839857D01*
X171711952Y-82887476D01*
X171759571Y-82935095D01*
X171807190Y-83030333D01*
X171807190Y-83411285D01*
X171378619Y-82458904D02*
X171331000Y-82411285D01*
X171283380Y-82316047D01*
X171283380Y-82077952D01*
X171331000Y-81982714D01*
X171378619Y-81935095D01*
X171473857Y-81887476D01*
X171569095Y-81887476D01*
X171711952Y-81935095D01*
X172283380Y-82506523D01*
X172283380Y-81887476D01*
X171283380Y-81554142D02*
X171283380Y-80935095D01*
X171664333Y-81268428D01*
X171664333Y-81125571D01*
X171711952Y-81030333D01*
X171759571Y-80982714D01*
X171854809Y-80935095D01*
X172092904Y-80935095D01*
X172188142Y-80982714D01*
X172235761Y-81030333D01*
X172283380Y-81125571D01*
X172283380Y-81411285D01*
X172235761Y-81506523D01*
X172188142Y-81554142D01*
%TO.C,R21*%
X172283380Y-72614857D02*
X171807190Y-72948190D01*
X172283380Y-73186285D02*
X171283380Y-73186285D01*
X171283380Y-72805333D01*
X171331000Y-72710095D01*
X171378619Y-72662476D01*
X171473857Y-72614857D01*
X171616714Y-72614857D01*
X171711952Y-72662476D01*
X171759571Y-72710095D01*
X171807190Y-72805333D01*
X171807190Y-73186285D01*
X171378619Y-72233904D02*
X171331000Y-72186285D01*
X171283380Y-72091047D01*
X171283380Y-71852952D01*
X171331000Y-71757714D01*
X171378619Y-71710095D01*
X171473857Y-71662476D01*
X171569095Y-71662476D01*
X171711952Y-71710095D01*
X172283380Y-72281523D01*
X172283380Y-71662476D01*
X172283380Y-70710095D02*
X172283380Y-71281523D01*
X172283380Y-70995809D02*
X171283380Y-70995809D01*
X171426238Y-71091047D01*
X171521476Y-71186285D01*
X171569095Y-71281523D01*
%TO.C,R19*%
X117467142Y-90622380D02*
X117133809Y-90146190D01*
X116895714Y-90622380D02*
X116895714Y-89622380D01*
X117276666Y-89622380D01*
X117371904Y-89670000D01*
X117419523Y-89717619D01*
X117467142Y-89812857D01*
X117467142Y-89955714D01*
X117419523Y-90050952D01*
X117371904Y-90098571D01*
X117276666Y-90146190D01*
X116895714Y-90146190D01*
X118419523Y-90622380D02*
X117848095Y-90622380D01*
X118133809Y-90622380D02*
X118133809Y-89622380D01*
X118038571Y-89765238D01*
X117943333Y-89860476D01*
X117848095Y-89908095D01*
X118895714Y-90622380D02*
X119086190Y-90622380D01*
X119181428Y-90574761D01*
X119229047Y-90527142D01*
X119324285Y-90384285D01*
X119371904Y-90193809D01*
X119371904Y-89812857D01*
X119324285Y-89717619D01*
X119276666Y-89670000D01*
X119181428Y-89622380D01*
X118990952Y-89622380D01*
X118895714Y-89670000D01*
X118848095Y-89717619D01*
X118800476Y-89812857D01*
X118800476Y-90050952D01*
X118848095Y-90146190D01*
X118895714Y-90193809D01*
X118990952Y-90241428D01*
X119181428Y-90241428D01*
X119276666Y-90193809D01*
X119324285Y-90146190D01*
X119371904Y-90050952D01*
%TO.C,R17*%
X144453642Y-90622380D02*
X144120309Y-90146190D01*
X143882214Y-90622380D02*
X143882214Y-89622380D01*
X144263166Y-89622380D01*
X144358404Y-89670000D01*
X144406023Y-89717619D01*
X144453642Y-89812857D01*
X144453642Y-89955714D01*
X144406023Y-90050952D01*
X144358404Y-90098571D01*
X144263166Y-90146190D01*
X143882214Y-90146190D01*
X145406023Y-90622380D02*
X144834595Y-90622380D01*
X145120309Y-90622380D02*
X145120309Y-89622380D01*
X145025071Y-89765238D01*
X144929833Y-89860476D01*
X144834595Y-89908095D01*
X145739357Y-89622380D02*
X146406023Y-89622380D01*
X145977452Y-90622380D01*
%TO.C,R13*%
X191968380Y-99762857D02*
X191492190Y-100096190D01*
X191968380Y-100334285D02*
X190968380Y-100334285D01*
X190968380Y-99953333D01*
X191016000Y-99858095D01*
X191063619Y-99810476D01*
X191158857Y-99762857D01*
X191301714Y-99762857D01*
X191396952Y-99810476D01*
X191444571Y-99858095D01*
X191492190Y-99953333D01*
X191492190Y-100334285D01*
X191968380Y-98810476D02*
X191968380Y-99381904D01*
X191968380Y-99096190D02*
X190968380Y-99096190D01*
X191111238Y-99191428D01*
X191206476Y-99286666D01*
X191254095Y-99381904D01*
X190968380Y-98477142D02*
X190968380Y-97858095D01*
X191349333Y-98191428D01*
X191349333Y-98048571D01*
X191396952Y-97953333D01*
X191444571Y-97905714D01*
X191539809Y-97858095D01*
X191777904Y-97858095D01*
X191873142Y-97905714D01*
X191920761Y-97953333D01*
X191968380Y-98048571D01*
X191968380Y-98334285D01*
X191920761Y-98429523D01*
X191873142Y-98477142D01*
%TO.C,R46*%
X116397880Y-72614857D02*
X115921690Y-72948190D01*
X116397880Y-73186285D02*
X115397880Y-73186285D01*
X115397880Y-72805333D01*
X115445500Y-72710095D01*
X115493119Y-72662476D01*
X115588357Y-72614857D01*
X115731214Y-72614857D01*
X115826452Y-72662476D01*
X115874071Y-72710095D01*
X115921690Y-72805333D01*
X115921690Y-73186285D01*
X115731214Y-71757714D02*
X116397880Y-71757714D01*
X115350261Y-71995809D02*
X116064547Y-72233904D01*
X116064547Y-71614857D01*
X115397880Y-70805333D02*
X115397880Y-70995809D01*
X115445500Y-71091047D01*
X115493119Y-71138666D01*
X115635976Y-71233904D01*
X115826452Y-71281523D01*
X116207404Y-71281523D01*
X116302642Y-71233904D01*
X116350261Y-71186285D01*
X116397880Y-71091047D01*
X116397880Y-70900571D01*
X116350261Y-70805333D01*
X116302642Y-70757714D01*
X116207404Y-70710095D01*
X115969309Y-70710095D01*
X115874071Y-70757714D01*
X115826452Y-70805333D01*
X115778833Y-70900571D01*
X115778833Y-71091047D01*
X115826452Y-71186285D01*
X115874071Y-71233904D01*
X115969309Y-71281523D01*
%TO.C,R44*%
X99004380Y-77727357D02*
X98528190Y-78060690D01*
X99004380Y-78298785D02*
X98004380Y-78298785D01*
X98004380Y-77917833D01*
X98052000Y-77822595D01*
X98099619Y-77774976D01*
X98194857Y-77727357D01*
X98337714Y-77727357D01*
X98432952Y-77774976D01*
X98480571Y-77822595D01*
X98528190Y-77917833D01*
X98528190Y-78298785D01*
X98337714Y-76870214D02*
X99004380Y-76870214D01*
X97956761Y-77108309D02*
X98671047Y-77346404D01*
X98671047Y-76727357D01*
X98337714Y-75917833D02*
X99004380Y-75917833D01*
X97956761Y-76155928D02*
X98671047Y-76394023D01*
X98671047Y-75774976D01*
%TO.C,R42*%
X120980880Y-82839857D02*
X120504690Y-83173190D01*
X120980880Y-83411285D02*
X119980880Y-83411285D01*
X119980880Y-83030333D01*
X120028500Y-82935095D01*
X120076119Y-82887476D01*
X120171357Y-82839857D01*
X120314214Y-82839857D01*
X120409452Y-82887476D01*
X120457071Y-82935095D01*
X120504690Y-83030333D01*
X120504690Y-83411285D01*
X120314214Y-81982714D02*
X120980880Y-81982714D01*
X119933261Y-82220809D02*
X120647547Y-82458904D01*
X120647547Y-81839857D01*
X120076119Y-81506523D02*
X120028500Y-81458904D01*
X119980880Y-81363666D01*
X119980880Y-81125571D01*
X120028500Y-81030333D01*
X120076119Y-80982714D01*
X120171357Y-80935095D01*
X120266595Y-80935095D01*
X120409452Y-80982714D01*
X120980880Y-81554142D01*
X120980880Y-80935095D01*
%TO.C,R40*%
X120726880Y-72614857D02*
X120250690Y-72948190D01*
X120726880Y-73186285D02*
X119726880Y-73186285D01*
X119726880Y-72805333D01*
X119774500Y-72710095D01*
X119822119Y-72662476D01*
X119917357Y-72614857D01*
X120060214Y-72614857D01*
X120155452Y-72662476D01*
X120203071Y-72710095D01*
X120250690Y-72805333D01*
X120250690Y-73186285D01*
X120060214Y-71757714D02*
X120726880Y-71757714D01*
X119679261Y-71995809D02*
X120393547Y-72233904D01*
X120393547Y-71614857D01*
X119726880Y-71043428D02*
X119726880Y-70948190D01*
X119774500Y-70852952D01*
X119822119Y-70805333D01*
X119917357Y-70757714D01*
X120107833Y-70710095D01*
X120345928Y-70710095D01*
X120536404Y-70757714D01*
X120631642Y-70805333D01*
X120679261Y-70852952D01*
X120726880Y-70948190D01*
X120726880Y-71043428D01*
X120679261Y-71138666D01*
X120631642Y-71186285D01*
X120536404Y-71233904D01*
X120345928Y-71281523D01*
X120107833Y-71281523D01*
X119917357Y-71233904D01*
X119822119Y-71186285D01*
X119774500Y-71138666D01*
X119726880Y-71043428D01*
%TO.C,R38*%
X118689380Y-82839857D02*
X118213190Y-83173190D01*
X118689380Y-83411285D02*
X117689380Y-83411285D01*
X117689380Y-83030333D01*
X117737000Y-82935095D01*
X117784619Y-82887476D01*
X117879857Y-82839857D01*
X118022714Y-82839857D01*
X118117952Y-82887476D01*
X118165571Y-82935095D01*
X118213190Y-83030333D01*
X118213190Y-83411285D01*
X117689380Y-82506523D02*
X117689380Y-81887476D01*
X118070333Y-82220809D01*
X118070333Y-82077952D01*
X118117952Y-81982714D01*
X118165571Y-81935095D01*
X118260809Y-81887476D01*
X118498904Y-81887476D01*
X118594142Y-81935095D01*
X118641761Y-81982714D01*
X118689380Y-82077952D01*
X118689380Y-82363666D01*
X118641761Y-82458904D01*
X118594142Y-82506523D01*
X118117952Y-81316047D02*
X118070333Y-81411285D01*
X118022714Y-81458904D01*
X117927476Y-81506523D01*
X117879857Y-81506523D01*
X117784619Y-81458904D01*
X117737000Y-81411285D01*
X117689380Y-81316047D01*
X117689380Y-81125571D01*
X117737000Y-81030333D01*
X117784619Y-80982714D01*
X117879857Y-80935095D01*
X117927476Y-80935095D01*
X118022714Y-80982714D01*
X118070333Y-81030333D01*
X118117952Y-81125571D01*
X118117952Y-81316047D01*
X118165571Y-81411285D01*
X118213190Y-81458904D01*
X118308428Y-81506523D01*
X118498904Y-81506523D01*
X118594142Y-81458904D01*
X118641761Y-81411285D01*
X118689380Y-81316047D01*
X118689380Y-81125571D01*
X118641761Y-81030333D01*
X118594142Y-80982714D01*
X118498904Y-80935095D01*
X118308428Y-80935095D01*
X118213190Y-80982714D01*
X118165571Y-81030333D01*
X118117952Y-81125571D01*
%TO.C,R36*%
X118689380Y-72614857D02*
X118213190Y-72948190D01*
X118689380Y-73186285D02*
X117689380Y-73186285D01*
X117689380Y-72805333D01*
X117737000Y-72710095D01*
X117784619Y-72662476D01*
X117879857Y-72614857D01*
X118022714Y-72614857D01*
X118117952Y-72662476D01*
X118165571Y-72710095D01*
X118213190Y-72805333D01*
X118213190Y-73186285D01*
X117689380Y-72281523D02*
X117689380Y-71662476D01*
X118070333Y-71995809D01*
X118070333Y-71852952D01*
X118117952Y-71757714D01*
X118165571Y-71710095D01*
X118260809Y-71662476D01*
X118498904Y-71662476D01*
X118594142Y-71710095D01*
X118641761Y-71757714D01*
X118689380Y-71852952D01*
X118689380Y-72138666D01*
X118641761Y-72233904D01*
X118594142Y-72281523D01*
X117689380Y-70805333D02*
X117689380Y-70995809D01*
X117737000Y-71091047D01*
X117784619Y-71138666D01*
X117927476Y-71233904D01*
X118117952Y-71281523D01*
X118498904Y-71281523D01*
X118594142Y-71233904D01*
X118641761Y-71186285D01*
X118689380Y-71091047D01*
X118689380Y-70900571D01*
X118641761Y-70805333D01*
X118594142Y-70757714D01*
X118498904Y-70710095D01*
X118260809Y-70710095D01*
X118165571Y-70757714D01*
X118117952Y-70805333D01*
X118070333Y-70900571D01*
X118070333Y-71091047D01*
X118117952Y-71186285D01*
X118165571Y-71233904D01*
X118260809Y-71281523D01*
%TO.C,R34*%
X116397880Y-82839857D02*
X115921690Y-83173190D01*
X116397880Y-83411285D02*
X115397880Y-83411285D01*
X115397880Y-83030333D01*
X115445500Y-82935095D01*
X115493119Y-82887476D01*
X115588357Y-82839857D01*
X115731214Y-82839857D01*
X115826452Y-82887476D01*
X115874071Y-82935095D01*
X115921690Y-83030333D01*
X115921690Y-83411285D01*
X115397880Y-82506523D02*
X115397880Y-81887476D01*
X115778833Y-82220809D01*
X115778833Y-82077952D01*
X115826452Y-81982714D01*
X115874071Y-81935095D01*
X115969309Y-81887476D01*
X116207404Y-81887476D01*
X116302642Y-81935095D01*
X116350261Y-81982714D01*
X116397880Y-82077952D01*
X116397880Y-82363666D01*
X116350261Y-82458904D01*
X116302642Y-82506523D01*
X115731214Y-81030333D02*
X116397880Y-81030333D01*
X115350261Y-81268428D02*
X116064547Y-81506523D01*
X116064547Y-80887476D01*
%TO.C,R32*%
X148314880Y-72614857D02*
X147838690Y-72948190D01*
X148314880Y-73186285D02*
X147314880Y-73186285D01*
X147314880Y-72805333D01*
X147362500Y-72710095D01*
X147410119Y-72662476D01*
X147505357Y-72614857D01*
X147648214Y-72614857D01*
X147743452Y-72662476D01*
X147791071Y-72710095D01*
X147838690Y-72805333D01*
X147838690Y-73186285D01*
X147314880Y-72281523D02*
X147314880Y-71662476D01*
X147695833Y-71995809D01*
X147695833Y-71852952D01*
X147743452Y-71757714D01*
X147791071Y-71710095D01*
X147886309Y-71662476D01*
X148124404Y-71662476D01*
X148219642Y-71710095D01*
X148267261Y-71757714D01*
X148314880Y-71852952D01*
X148314880Y-72138666D01*
X148267261Y-72233904D01*
X148219642Y-72281523D01*
X147410119Y-71281523D02*
X147362500Y-71233904D01*
X147314880Y-71138666D01*
X147314880Y-70900571D01*
X147362500Y-70805333D01*
X147410119Y-70757714D01*
X147505357Y-70710095D01*
X147600595Y-70710095D01*
X147743452Y-70757714D01*
X148314880Y-71329142D01*
X148314880Y-70710095D01*
%TO.C,R30*%
X145486380Y-82839857D02*
X145010190Y-83173190D01*
X145486380Y-83411285D02*
X144486380Y-83411285D01*
X144486380Y-83030333D01*
X144534000Y-82935095D01*
X144581619Y-82887476D01*
X144676857Y-82839857D01*
X144819714Y-82839857D01*
X144914952Y-82887476D01*
X144962571Y-82935095D01*
X145010190Y-83030333D01*
X145010190Y-83411285D01*
X144486380Y-82506523D02*
X144486380Y-81887476D01*
X144867333Y-82220809D01*
X144867333Y-82077952D01*
X144914952Y-81982714D01*
X144962571Y-81935095D01*
X145057809Y-81887476D01*
X145295904Y-81887476D01*
X145391142Y-81935095D01*
X145438761Y-81982714D01*
X145486380Y-82077952D01*
X145486380Y-82363666D01*
X145438761Y-82458904D01*
X145391142Y-82506523D01*
X144486380Y-81268428D02*
X144486380Y-81173190D01*
X144534000Y-81077952D01*
X144581619Y-81030333D01*
X144676857Y-80982714D01*
X144867333Y-80935095D01*
X145105428Y-80935095D01*
X145295904Y-80982714D01*
X145391142Y-81030333D01*
X145438761Y-81077952D01*
X145486380Y-81173190D01*
X145486380Y-81268428D01*
X145438761Y-81363666D01*
X145391142Y-81411285D01*
X145295904Y-81458904D01*
X145105428Y-81506523D01*
X144867333Y-81506523D01*
X144676857Y-81458904D01*
X144581619Y-81411285D01*
X144534000Y-81363666D01*
X144486380Y-81268428D01*
%TO.C,R28*%
X153844880Y-82712857D02*
X153368690Y-83046190D01*
X153844880Y-83284285D02*
X152844880Y-83284285D01*
X152844880Y-82903333D01*
X152892500Y-82808095D01*
X152940119Y-82760476D01*
X153035357Y-82712857D01*
X153178214Y-82712857D01*
X153273452Y-82760476D01*
X153321071Y-82808095D01*
X153368690Y-82903333D01*
X153368690Y-83284285D01*
X152940119Y-82331904D02*
X152892500Y-82284285D01*
X152844880Y-82189047D01*
X152844880Y-81950952D01*
X152892500Y-81855714D01*
X152940119Y-81808095D01*
X153035357Y-81760476D01*
X153130595Y-81760476D01*
X153273452Y-81808095D01*
X153844880Y-82379523D01*
X153844880Y-81760476D01*
X153273452Y-81189047D02*
X153225833Y-81284285D01*
X153178214Y-81331904D01*
X153082976Y-81379523D01*
X153035357Y-81379523D01*
X152940119Y-81331904D01*
X152892500Y-81284285D01*
X152844880Y-81189047D01*
X152844880Y-80998571D01*
X152892500Y-80903333D01*
X152940119Y-80855714D01*
X153035357Y-80808095D01*
X153082976Y-80808095D01*
X153178214Y-80855714D01*
X153225833Y-80903333D01*
X153273452Y-80998571D01*
X153273452Y-81189047D01*
X153321071Y-81284285D01*
X153368690Y-81331904D01*
X153463928Y-81379523D01*
X153654404Y-81379523D01*
X153749642Y-81331904D01*
X153797261Y-81284285D01*
X153844880Y-81189047D01*
X153844880Y-80998571D01*
X153797261Y-80903333D01*
X153749642Y-80855714D01*
X153654404Y-80808095D01*
X153463928Y-80808095D01*
X153368690Y-80855714D01*
X153321071Y-80903333D01*
X153273452Y-80998571D01*
%TO.C,R26*%
X153971880Y-72614857D02*
X153495690Y-72948190D01*
X153971880Y-73186285D02*
X152971880Y-73186285D01*
X152971880Y-72805333D01*
X153019500Y-72710095D01*
X153067119Y-72662476D01*
X153162357Y-72614857D01*
X153305214Y-72614857D01*
X153400452Y-72662476D01*
X153448071Y-72710095D01*
X153495690Y-72805333D01*
X153495690Y-73186285D01*
X153067119Y-72233904D02*
X153019500Y-72186285D01*
X152971880Y-72091047D01*
X152971880Y-71852952D01*
X153019500Y-71757714D01*
X153067119Y-71710095D01*
X153162357Y-71662476D01*
X153257595Y-71662476D01*
X153400452Y-71710095D01*
X153971880Y-72281523D01*
X153971880Y-71662476D01*
X152971880Y-70805333D02*
X152971880Y-70995809D01*
X153019500Y-71091047D01*
X153067119Y-71138666D01*
X153209976Y-71233904D01*
X153400452Y-71281523D01*
X153781404Y-71281523D01*
X153876642Y-71233904D01*
X153924261Y-71186285D01*
X153971880Y-71091047D01*
X153971880Y-70900571D01*
X153924261Y-70805333D01*
X153876642Y-70757714D01*
X153781404Y-70710095D01*
X153543309Y-70710095D01*
X153448071Y-70757714D01*
X153400452Y-70805333D01*
X153352833Y-70900571D01*
X153352833Y-71091047D01*
X153400452Y-71186285D01*
X153448071Y-71233904D01*
X153543309Y-71281523D01*
%TO.C,R24*%
X151143380Y-82839857D02*
X150667190Y-83173190D01*
X151143380Y-83411285D02*
X150143380Y-83411285D01*
X150143380Y-83030333D01*
X150191000Y-82935095D01*
X150238619Y-82887476D01*
X150333857Y-82839857D01*
X150476714Y-82839857D01*
X150571952Y-82887476D01*
X150619571Y-82935095D01*
X150667190Y-83030333D01*
X150667190Y-83411285D01*
X150238619Y-82458904D02*
X150191000Y-82411285D01*
X150143380Y-82316047D01*
X150143380Y-82077952D01*
X150191000Y-81982714D01*
X150238619Y-81935095D01*
X150333857Y-81887476D01*
X150429095Y-81887476D01*
X150571952Y-81935095D01*
X151143380Y-82506523D01*
X151143380Y-81887476D01*
X150476714Y-81030333D02*
X151143380Y-81030333D01*
X150095761Y-81268428D02*
X150810047Y-81506523D01*
X150810047Y-80887476D01*
%TO.C,R22*%
X151143380Y-72614857D02*
X150667190Y-72948190D01*
X151143380Y-73186285D02*
X150143380Y-73186285D01*
X150143380Y-72805333D01*
X150191000Y-72710095D01*
X150238619Y-72662476D01*
X150333857Y-72614857D01*
X150476714Y-72614857D01*
X150571952Y-72662476D01*
X150619571Y-72710095D01*
X150667190Y-72805333D01*
X150667190Y-73186285D01*
X150238619Y-72233904D02*
X150191000Y-72186285D01*
X150143380Y-72091047D01*
X150143380Y-71852952D01*
X150191000Y-71757714D01*
X150238619Y-71710095D01*
X150333857Y-71662476D01*
X150429095Y-71662476D01*
X150571952Y-71710095D01*
X151143380Y-72281523D01*
X151143380Y-71662476D01*
X150238619Y-71281523D02*
X150191000Y-71233904D01*
X150143380Y-71138666D01*
X150143380Y-70900571D01*
X150191000Y-70805333D01*
X150238619Y-70757714D01*
X150333857Y-70710095D01*
X150429095Y-70710095D01*
X150571952Y-70757714D01*
X151143380Y-71329142D01*
X151143380Y-70710095D01*
%TO.C,R20*%
X148314880Y-82839857D02*
X147838690Y-83173190D01*
X148314880Y-83411285D02*
X147314880Y-83411285D01*
X147314880Y-83030333D01*
X147362500Y-82935095D01*
X147410119Y-82887476D01*
X147505357Y-82839857D01*
X147648214Y-82839857D01*
X147743452Y-82887476D01*
X147791071Y-82935095D01*
X147838690Y-83030333D01*
X147838690Y-83411285D01*
X147410119Y-82458904D02*
X147362500Y-82411285D01*
X147314880Y-82316047D01*
X147314880Y-82077952D01*
X147362500Y-81982714D01*
X147410119Y-81935095D01*
X147505357Y-81887476D01*
X147600595Y-81887476D01*
X147743452Y-81935095D01*
X148314880Y-82506523D01*
X148314880Y-81887476D01*
X147314880Y-81268428D02*
X147314880Y-81173190D01*
X147362500Y-81077952D01*
X147410119Y-81030333D01*
X147505357Y-80982714D01*
X147695833Y-80935095D01*
X147933928Y-80935095D01*
X148124404Y-80982714D01*
X148219642Y-81030333D01*
X148267261Y-81077952D01*
X148314880Y-81173190D01*
X148314880Y-81268428D01*
X148267261Y-81363666D01*
X148219642Y-81411285D01*
X148124404Y-81458904D01*
X147933928Y-81506523D01*
X147695833Y-81506523D01*
X147505357Y-81458904D01*
X147410119Y-81411285D01*
X147362500Y-81363666D01*
X147314880Y-81268428D01*
%TO.C,R7*%
X189202380Y-115636666D02*
X188726190Y-115970000D01*
X189202380Y-116208095D02*
X188202380Y-116208095D01*
X188202380Y-115827142D01*
X188250000Y-115731904D01*
X188297619Y-115684285D01*
X188392857Y-115636666D01*
X188535714Y-115636666D01*
X188630952Y-115684285D01*
X188678571Y-115731904D01*
X188726190Y-115827142D01*
X188726190Y-116208095D01*
X188202380Y-115303333D02*
X188202380Y-114636666D01*
X189202380Y-115065238D01*
%TO.C,R6*%
X169260713Y-115636666D02*
X168784523Y-115970000D01*
X169260713Y-116208095D02*
X168260713Y-116208095D01*
X168260713Y-115827142D01*
X168308333Y-115731904D01*
X168355952Y-115684285D01*
X168451190Y-115636666D01*
X168594047Y-115636666D01*
X168689285Y-115684285D01*
X168736904Y-115731904D01*
X168784523Y-115827142D01*
X168784523Y-116208095D01*
X168260713Y-114779523D02*
X168260713Y-114970000D01*
X168308333Y-115065238D01*
X168355952Y-115112857D01*
X168498809Y-115208095D01*
X168689285Y-115255714D01*
X169070237Y-115255714D01*
X169165475Y-115208095D01*
X169213094Y-115160476D01*
X169260713Y-115065238D01*
X169260713Y-114874761D01*
X169213094Y-114779523D01*
X169165475Y-114731904D01*
X169070237Y-114684285D01*
X168832142Y-114684285D01*
X168736904Y-114731904D01*
X168689285Y-114779523D01*
X168641666Y-114874761D01*
X168641666Y-115065238D01*
X168689285Y-115160476D01*
X168736904Y-115208095D01*
X168832142Y-115255714D01*
%TO.C,R9*%
X155369046Y-115636666D02*
X154892856Y-115970000D01*
X155369046Y-116208095D02*
X154369046Y-116208095D01*
X154369046Y-115827142D01*
X154416666Y-115731904D01*
X154464285Y-115684285D01*
X154559523Y-115636666D01*
X154702380Y-115636666D01*
X154797618Y-115684285D01*
X154845237Y-115731904D01*
X154892856Y-115827142D01*
X154892856Y-116208095D01*
X155369046Y-115160476D02*
X155369046Y-114970000D01*
X155321427Y-114874761D01*
X155273808Y-114827142D01*
X155130951Y-114731904D01*
X154940475Y-114684285D01*
X154559523Y-114684285D01*
X154464285Y-114731904D01*
X154416666Y-114779523D01*
X154369046Y-114874761D01*
X154369046Y-115065238D01*
X154416666Y-115160476D01*
X154464285Y-115208095D01*
X154559523Y-115255714D01*
X154797618Y-115255714D01*
X154892856Y-115208095D01*
X154940475Y-115160476D01*
X154988094Y-115065238D01*
X154988094Y-114874761D01*
X154940475Y-114779523D01*
X154892856Y-114731904D01*
X154797618Y-114684285D01*
%TO.C,R11*%
X121494046Y-116112857D02*
X121017856Y-116446190D01*
X121494046Y-116684285D02*
X120494046Y-116684285D01*
X120494046Y-116303333D01*
X120541666Y-116208095D01*
X120589285Y-116160476D01*
X120684523Y-116112857D01*
X120827380Y-116112857D01*
X120922618Y-116160476D01*
X120970237Y-116208095D01*
X121017856Y-116303333D01*
X121017856Y-116684285D01*
X121494046Y-115160476D02*
X121494046Y-115731904D01*
X121494046Y-115446190D02*
X120494046Y-115446190D01*
X120636904Y-115541428D01*
X120732142Y-115636666D01*
X120779761Y-115731904D01*
X121494046Y-114208095D02*
X121494046Y-114779523D01*
X121494046Y-114493809D02*
X120494046Y-114493809D01*
X120636904Y-114589047D01*
X120732142Y-114684285D01*
X120779761Y-114779523D01*
%TO.C,R8*%
X135385713Y-115826666D02*
X134909523Y-116160000D01*
X135385713Y-116398095D02*
X134385713Y-116398095D01*
X134385713Y-116017142D01*
X134433333Y-115921904D01*
X134480952Y-115874285D01*
X134576190Y-115826666D01*
X134719047Y-115826666D01*
X134814285Y-115874285D01*
X134861904Y-115921904D01*
X134909523Y-116017142D01*
X134909523Y-116398095D01*
X134814285Y-115255238D02*
X134766666Y-115350476D01*
X134719047Y-115398095D01*
X134623809Y-115445714D01*
X134576190Y-115445714D01*
X134480952Y-115398095D01*
X134433333Y-115350476D01*
X134385713Y-115255238D01*
X134385713Y-115064761D01*
X134433333Y-114969523D01*
X134480952Y-114921904D01*
X134576190Y-114874285D01*
X134623809Y-114874285D01*
X134719047Y-114921904D01*
X134766666Y-114969523D01*
X134814285Y-115064761D01*
X134814285Y-115255238D01*
X134861904Y-115350476D01*
X134909523Y-115398095D01*
X135004761Y-115445714D01*
X135195237Y-115445714D01*
X135290475Y-115398095D01*
X135338094Y-115350476D01*
X135385713Y-115255238D01*
X135385713Y-115064761D01*
X135338094Y-114969523D01*
X135290475Y-114921904D01*
X135195237Y-114874285D01*
X135004761Y-114874285D01*
X134909523Y-114921904D01*
X134861904Y-114969523D01*
X134814285Y-115064761D01*
%TO.C,R10*%
X101702380Y-116212857D02*
X101226190Y-116546190D01*
X101702380Y-116784285D02*
X100702380Y-116784285D01*
X100702380Y-116403333D01*
X100750000Y-116308095D01*
X100797619Y-116260476D01*
X100892857Y-116212857D01*
X101035714Y-116212857D01*
X101130952Y-116260476D01*
X101178571Y-116308095D01*
X101226190Y-116403333D01*
X101226190Y-116784285D01*
X101702380Y-115260476D02*
X101702380Y-115831904D01*
X101702380Y-115546190D02*
X100702380Y-115546190D01*
X100845238Y-115641428D01*
X100940476Y-115736666D01*
X100988095Y-115831904D01*
X100702380Y-114641428D02*
X100702380Y-114546190D01*
X100750000Y-114450952D01*
X100797619Y-114403333D01*
X100892857Y-114355714D01*
X101083333Y-114308095D01*
X101321428Y-114308095D01*
X101511904Y-114355714D01*
X101607142Y-114403333D01*
X101654761Y-114450952D01*
X101702380Y-114546190D01*
X101702380Y-114641428D01*
X101654761Y-114736666D01*
X101607142Y-114784285D01*
X101511904Y-114831904D01*
X101321428Y-114879523D01*
X101083333Y-114879523D01*
X100892857Y-114831904D01*
X100797619Y-114784285D01*
X100750000Y-114736666D01*
X100702380Y-114641428D01*
%TO.C,R5*%
X150522880Y-152312666D02*
X150046690Y-152646000D01*
X150522880Y-152884095D02*
X149522880Y-152884095D01*
X149522880Y-152503142D01*
X149570500Y-152407904D01*
X149618119Y-152360285D01*
X149713357Y-152312666D01*
X149856214Y-152312666D01*
X149951452Y-152360285D01*
X149999071Y-152407904D01*
X150046690Y-152503142D01*
X150046690Y-152884095D01*
X149522880Y-151407904D02*
X149522880Y-151884095D01*
X149999071Y-151931714D01*
X149951452Y-151884095D01*
X149903833Y-151788857D01*
X149903833Y-151550761D01*
X149951452Y-151455523D01*
X149999071Y-151407904D01*
X150094309Y-151360285D01*
X150332404Y-151360285D01*
X150427642Y-151407904D01*
X150475261Y-151455523D01*
X150522880Y-151550761D01*
X150522880Y-151788857D01*
X150475261Y-151884095D01*
X150427642Y-151931714D01*
%TO.C,R3*%
X149039333Y-142692380D02*
X148706000Y-142216190D01*
X148467904Y-142692380D02*
X148467904Y-141692380D01*
X148848857Y-141692380D01*
X148944095Y-141740000D01*
X148991714Y-141787619D01*
X149039333Y-141882857D01*
X149039333Y-142025714D01*
X148991714Y-142120952D01*
X148944095Y-142168571D01*
X148848857Y-142216190D01*
X148467904Y-142216190D01*
X149372666Y-141692380D02*
X149991714Y-141692380D01*
X149658380Y-142073333D01*
X149801238Y-142073333D01*
X149896476Y-142120952D01*
X149944095Y-142168571D01*
X149991714Y-142263809D01*
X149991714Y-142501904D01*
X149944095Y-142597142D01*
X149896476Y-142644761D01*
X149801238Y-142692380D01*
X149515523Y-142692380D01*
X149420285Y-142644761D01*
X149372666Y-142597142D01*
%TO.C,R2*%
X127341333Y-142692380D02*
X127008000Y-142216190D01*
X126769904Y-142692380D02*
X126769904Y-141692380D01*
X127150857Y-141692380D01*
X127246095Y-141740000D01*
X127293714Y-141787619D01*
X127341333Y-141882857D01*
X127341333Y-142025714D01*
X127293714Y-142120952D01*
X127246095Y-142168571D01*
X127150857Y-142216190D01*
X126769904Y-142216190D01*
X127722285Y-141787619D02*
X127769904Y-141740000D01*
X127865142Y-141692380D01*
X128103238Y-141692380D01*
X128198476Y-141740000D01*
X128246095Y-141787619D01*
X128293714Y-141882857D01*
X128293714Y-141978095D01*
X128246095Y-142120952D01*
X127674666Y-142692380D01*
X128293714Y-142692380D01*
%TO.C,R1*%
X105599333Y-142774380D02*
X105266000Y-142298190D01*
X105027904Y-142774380D02*
X105027904Y-141774380D01*
X105408857Y-141774380D01*
X105504095Y-141822000D01*
X105551714Y-141869619D01*
X105599333Y-141964857D01*
X105599333Y-142107714D01*
X105551714Y-142202952D01*
X105504095Y-142250571D01*
X105408857Y-142298190D01*
X105027904Y-142298190D01*
X106551714Y-142774380D02*
X105980285Y-142774380D01*
X106266000Y-142774380D02*
X106266000Y-141774380D01*
X106170761Y-141917238D01*
X106075523Y-142012476D01*
X105980285Y-142060095D01*
%TO.C,D2*%
X186452380Y-116058095D02*
X185452380Y-116058095D01*
X185452380Y-115820000D01*
X185500000Y-115677142D01*
X185595238Y-115581904D01*
X185690476Y-115534285D01*
X185880952Y-115486666D01*
X186023809Y-115486666D01*
X186214285Y-115534285D01*
X186309523Y-115581904D01*
X186404761Y-115677142D01*
X186452380Y-115820000D01*
X186452380Y-116058095D01*
X185547619Y-115105714D02*
X185500000Y-115058095D01*
X185452380Y-114962857D01*
X185452380Y-114724761D01*
X185500000Y-114629523D01*
X185547619Y-114581904D01*
X185642857Y-114534285D01*
X185738095Y-114534285D01*
X185880952Y-114581904D01*
X186452380Y-115153333D01*
X186452380Y-114534285D01*
%TO.C,D1*%
X172106546Y-116058095D02*
X171106546Y-116058095D01*
X171106546Y-115820000D01*
X171154166Y-115677142D01*
X171249404Y-115581904D01*
X171344642Y-115534285D01*
X171535118Y-115486666D01*
X171677975Y-115486666D01*
X171868451Y-115534285D01*
X171963689Y-115581904D01*
X172058927Y-115677142D01*
X172106546Y-115820000D01*
X172106546Y-116058095D01*
X172106546Y-114534285D02*
X172106546Y-115105714D01*
X172106546Y-114820000D02*
X171106546Y-114820000D01*
X171249404Y-114915238D01*
X171344642Y-115010476D01*
X171392261Y-115105714D01*
%TO.C,D4*%
X152523213Y-116058095D02*
X151523213Y-116058095D01*
X151523213Y-115820000D01*
X151570833Y-115677142D01*
X151666071Y-115581904D01*
X151761309Y-115534285D01*
X151951785Y-115486666D01*
X152094642Y-115486666D01*
X152285118Y-115534285D01*
X152380356Y-115581904D01*
X152475594Y-115677142D01*
X152523213Y-115820000D01*
X152523213Y-116058095D01*
X151856547Y-114629523D02*
X152523213Y-114629523D01*
X151475594Y-114867619D02*
X152189880Y-115105714D01*
X152189880Y-114486666D01*
%TO.C,D5*%
X118648213Y-116058095D02*
X117648213Y-116058095D01*
X117648213Y-115820000D01*
X117695833Y-115677142D01*
X117791071Y-115581904D01*
X117886309Y-115534285D01*
X118076785Y-115486666D01*
X118219642Y-115486666D01*
X118410118Y-115534285D01*
X118505356Y-115581904D01*
X118600594Y-115677142D01*
X118648213Y-115820000D01*
X118648213Y-116058095D01*
X117648213Y-114581904D02*
X117648213Y-115058095D01*
X118124404Y-115105714D01*
X118076785Y-115058095D01*
X118029166Y-114962857D01*
X118029166Y-114724761D01*
X118076785Y-114629523D01*
X118124404Y-114581904D01*
X118219642Y-114534285D01*
X118457737Y-114534285D01*
X118552975Y-114581904D01*
X118600594Y-114629523D01*
X118648213Y-114724761D01*
X118648213Y-114962857D01*
X118600594Y-115058095D01*
X118552975Y-115105714D01*
%TO.C,D3*%
X138231546Y-116058095D02*
X137231546Y-116058095D01*
X137231546Y-115820000D01*
X137279166Y-115677142D01*
X137374404Y-115581904D01*
X137469642Y-115534285D01*
X137660118Y-115486666D01*
X137802975Y-115486666D01*
X137993451Y-115534285D01*
X138088689Y-115581904D01*
X138183927Y-115677142D01*
X138231546Y-115820000D01*
X138231546Y-116058095D01*
X137231546Y-115153333D02*
X137231546Y-114534285D01*
X137612499Y-114867619D01*
X137612499Y-114724761D01*
X137660118Y-114629523D01*
X137707737Y-114581904D01*
X137802975Y-114534285D01*
X138041070Y-114534285D01*
X138136308Y-114581904D01*
X138183927Y-114629523D01*
X138231546Y-114724761D01*
X138231546Y-115010476D01*
X138183927Y-115105714D01*
X138136308Y-115153333D01*
%TO.C,D6*%
X104452380Y-116058095D02*
X103452380Y-116058095D01*
X103452380Y-115820000D01*
X103500000Y-115677142D01*
X103595238Y-115581904D01*
X103690476Y-115534285D01*
X103880952Y-115486666D01*
X104023809Y-115486666D01*
X104214285Y-115534285D01*
X104309523Y-115581904D01*
X104404761Y-115677142D01*
X104452380Y-115820000D01*
X104452380Y-116058095D01*
X103452380Y-114629523D02*
X103452380Y-114820000D01*
X103500000Y-114915238D01*
X103547619Y-114962857D01*
X103690476Y-115058095D01*
X103880952Y-115105714D01*
X104261904Y-115105714D01*
X104357142Y-115058095D01*
X104404761Y-115010476D01*
X104452380Y-114915238D01*
X104452380Y-114724761D01*
X104404761Y-114629523D01*
X104357142Y-114581904D01*
X104261904Y-114534285D01*
X104023809Y-114534285D01*
X103928571Y-114581904D01*
X103880952Y-114629523D01*
X103833333Y-114724761D01*
X103833333Y-114915238D01*
X103880952Y-115010476D01*
X103928571Y-115058095D01*
X104023809Y-115105714D01*
%TO.C,C13*%
X178157142Y-108017142D02*
X178109523Y-108064761D01*
X177966666Y-108112380D01*
X177871428Y-108112380D01*
X177728571Y-108064761D01*
X177633333Y-107969523D01*
X177585714Y-107874285D01*
X177538095Y-107683809D01*
X177538095Y-107540952D01*
X177585714Y-107350476D01*
X177633333Y-107255238D01*
X177728571Y-107160000D01*
X177871428Y-107112380D01*
X177966666Y-107112380D01*
X178109523Y-107160000D01*
X178157142Y-107207619D01*
X179109523Y-108112380D02*
X178538095Y-108112380D01*
X178823809Y-108112380D02*
X178823809Y-107112380D01*
X178728571Y-107255238D01*
X178633333Y-107350476D01*
X178538095Y-107398095D01*
X179442857Y-107112380D02*
X180061904Y-107112380D01*
X179728571Y-107493333D01*
X179871428Y-107493333D01*
X179966666Y-107540952D01*
X180014285Y-107588571D01*
X180061904Y-107683809D01*
X180061904Y-107921904D01*
X180014285Y-108017142D01*
X179966666Y-108064761D01*
X179871428Y-108112380D01*
X179585714Y-108112380D01*
X179490476Y-108064761D01*
X179442857Y-108017142D01*
%TO.C,C12*%
X161219642Y-108017142D02*
X161172023Y-108064761D01*
X161029166Y-108112380D01*
X160933928Y-108112380D01*
X160791071Y-108064761D01*
X160695833Y-107969523D01*
X160648214Y-107874285D01*
X160600595Y-107683809D01*
X160600595Y-107540952D01*
X160648214Y-107350476D01*
X160695833Y-107255238D01*
X160791071Y-107160000D01*
X160933928Y-107112380D01*
X161029166Y-107112380D01*
X161172023Y-107160000D01*
X161219642Y-107207619D01*
X162172023Y-108112380D02*
X161600595Y-108112380D01*
X161886309Y-108112380D02*
X161886309Y-107112380D01*
X161791071Y-107255238D01*
X161695833Y-107350476D01*
X161600595Y-107398095D01*
X162552976Y-107207619D02*
X162600595Y-107160000D01*
X162695833Y-107112380D01*
X162933928Y-107112380D01*
X163029166Y-107160000D01*
X163076785Y-107207619D01*
X163124404Y-107302857D01*
X163124404Y-107398095D01*
X163076785Y-107540952D01*
X162505357Y-108112380D01*
X163124404Y-108112380D01*
%TO.C,C11*%
X144282142Y-108017142D02*
X144234523Y-108064761D01*
X144091666Y-108112380D01*
X143996428Y-108112380D01*
X143853571Y-108064761D01*
X143758333Y-107969523D01*
X143710714Y-107874285D01*
X143663095Y-107683809D01*
X143663095Y-107540952D01*
X143710714Y-107350476D01*
X143758333Y-107255238D01*
X143853571Y-107160000D01*
X143996428Y-107112380D01*
X144091666Y-107112380D01*
X144234523Y-107160000D01*
X144282142Y-107207619D01*
X145234523Y-108112380D02*
X144663095Y-108112380D01*
X144948809Y-108112380D02*
X144948809Y-107112380D01*
X144853571Y-107255238D01*
X144758333Y-107350476D01*
X144663095Y-107398095D01*
X146186904Y-108112380D02*
X145615476Y-108112380D01*
X145901190Y-108112380D02*
X145901190Y-107112380D01*
X145805952Y-107255238D01*
X145710714Y-107350476D01*
X145615476Y-107398095D01*
%TO.C,C10*%
X127344642Y-108017142D02*
X127297023Y-108064761D01*
X127154166Y-108112380D01*
X127058928Y-108112380D01*
X126916071Y-108064761D01*
X126820833Y-107969523D01*
X126773214Y-107874285D01*
X126725595Y-107683809D01*
X126725595Y-107540952D01*
X126773214Y-107350476D01*
X126820833Y-107255238D01*
X126916071Y-107160000D01*
X127058928Y-107112380D01*
X127154166Y-107112380D01*
X127297023Y-107160000D01*
X127344642Y-107207619D01*
X128297023Y-108112380D02*
X127725595Y-108112380D01*
X128011309Y-108112380D02*
X128011309Y-107112380D01*
X127916071Y-107255238D01*
X127820833Y-107350476D01*
X127725595Y-107398095D01*
X128916071Y-107112380D02*
X129011309Y-107112380D01*
X129106547Y-107160000D01*
X129154166Y-107207619D01*
X129201785Y-107302857D01*
X129249404Y-107493333D01*
X129249404Y-107731428D01*
X129201785Y-107921904D01*
X129154166Y-108017142D01*
X129106547Y-108064761D01*
X129011309Y-108112380D01*
X128916071Y-108112380D01*
X128820833Y-108064761D01*
X128773214Y-108017142D01*
X128725595Y-107921904D01*
X128677976Y-107731428D01*
X128677976Y-107493333D01*
X128725595Y-107302857D01*
X128773214Y-107207619D01*
X128820833Y-107160000D01*
X128916071Y-107112380D01*
%TO.C,C9*%
X110883333Y-108017142D02*
X110835714Y-108064761D01*
X110692857Y-108112380D01*
X110597619Y-108112380D01*
X110454761Y-108064761D01*
X110359523Y-107969523D01*
X110311904Y-107874285D01*
X110264285Y-107683809D01*
X110264285Y-107540952D01*
X110311904Y-107350476D01*
X110359523Y-107255238D01*
X110454761Y-107160000D01*
X110597619Y-107112380D01*
X110692857Y-107112380D01*
X110835714Y-107160000D01*
X110883333Y-107207619D01*
X111359523Y-108112380D02*
X111550000Y-108112380D01*
X111645238Y-108064761D01*
X111692857Y-108017142D01*
X111788095Y-107874285D01*
X111835714Y-107683809D01*
X111835714Y-107302857D01*
X111788095Y-107207619D01*
X111740476Y-107160000D01*
X111645238Y-107112380D01*
X111454761Y-107112380D01*
X111359523Y-107160000D01*
X111311904Y-107207619D01*
X111264285Y-107302857D01*
X111264285Y-107540952D01*
X111311904Y-107636190D01*
X111359523Y-107683809D01*
X111454761Y-107731428D01*
X111645238Y-107731428D01*
X111740476Y-107683809D01*
X111788095Y-107636190D01*
X111835714Y-107540952D01*
%TO.C,C8*%
X181951333Y-144375142D02*
X181903714Y-144422761D01*
X181760857Y-144470380D01*
X181665619Y-144470380D01*
X181522761Y-144422761D01*
X181427523Y-144327523D01*
X181379904Y-144232285D01*
X181332285Y-144041809D01*
X181332285Y-143898952D01*
X181379904Y-143708476D01*
X181427523Y-143613238D01*
X181522761Y-143518000D01*
X181665619Y-143470380D01*
X181760857Y-143470380D01*
X181903714Y-143518000D01*
X181951333Y-143565619D01*
X182522761Y-143898952D02*
X182427523Y-143851333D01*
X182379904Y-143803714D01*
X182332285Y-143708476D01*
X182332285Y-143660857D01*
X182379904Y-143565619D01*
X182427523Y-143518000D01*
X182522761Y-143470380D01*
X182713238Y-143470380D01*
X182808476Y-143518000D01*
X182856095Y-143565619D01*
X182903714Y-143660857D01*
X182903714Y-143708476D01*
X182856095Y-143803714D01*
X182808476Y-143851333D01*
X182713238Y-143898952D01*
X182522761Y-143898952D01*
X182427523Y-143946571D01*
X182379904Y-143994190D01*
X182332285Y-144089428D01*
X182332285Y-144279904D01*
X182379904Y-144375142D01*
X182427523Y-144422761D01*
X182522761Y-144470380D01*
X182713238Y-144470380D01*
X182808476Y-144422761D01*
X182856095Y-144375142D01*
X182903714Y-144279904D01*
X182903714Y-144089428D01*
X182856095Y-143994190D01*
X182808476Y-143946571D01*
X182713238Y-143898952D01*
%TO.C,C7*%
X160107333Y-144629142D02*
X160059714Y-144676761D01*
X159916857Y-144724380D01*
X159821619Y-144724380D01*
X159678761Y-144676761D01*
X159583523Y-144581523D01*
X159535904Y-144486285D01*
X159488285Y-144295809D01*
X159488285Y-144152952D01*
X159535904Y-143962476D01*
X159583523Y-143867238D01*
X159678761Y-143772000D01*
X159821619Y-143724380D01*
X159916857Y-143724380D01*
X160059714Y-143772000D01*
X160107333Y-143819619D01*
X160440666Y-143724380D02*
X161107333Y-143724380D01*
X160678761Y-144724380D01*
%TO.C,C6*%
X138517333Y-144375142D02*
X138469714Y-144422761D01*
X138326857Y-144470380D01*
X138231619Y-144470380D01*
X138088761Y-144422761D01*
X137993523Y-144327523D01*
X137945904Y-144232285D01*
X137898285Y-144041809D01*
X137898285Y-143898952D01*
X137945904Y-143708476D01*
X137993523Y-143613238D01*
X138088761Y-143518000D01*
X138231619Y-143470380D01*
X138326857Y-143470380D01*
X138469714Y-143518000D01*
X138517333Y-143565619D01*
X139374476Y-143470380D02*
X139184000Y-143470380D01*
X139088761Y-143518000D01*
X139041142Y-143565619D01*
X138945904Y-143708476D01*
X138898285Y-143898952D01*
X138898285Y-144279904D01*
X138945904Y-144375142D01*
X138993523Y-144422761D01*
X139088761Y-144470380D01*
X139279238Y-144470380D01*
X139374476Y-144422761D01*
X139422095Y-144375142D01*
X139469714Y-144279904D01*
X139469714Y-144041809D01*
X139422095Y-143946571D01*
X139374476Y-143898952D01*
X139279238Y-143851333D01*
X139088761Y-143851333D01*
X138993523Y-143898952D01*
X138945904Y-143946571D01*
X138898285Y-144041809D01*
%TO.C,C5*%
X116165333Y-144375142D02*
X116117714Y-144422761D01*
X115974857Y-144470380D01*
X115879619Y-144470380D01*
X115736761Y-144422761D01*
X115641523Y-144327523D01*
X115593904Y-144232285D01*
X115546285Y-144041809D01*
X115546285Y-143898952D01*
X115593904Y-143708476D01*
X115641523Y-143613238D01*
X115736761Y-143518000D01*
X115879619Y-143470380D01*
X115974857Y-143470380D01*
X116117714Y-143518000D01*
X116165333Y-143565619D01*
X117070095Y-143470380D02*
X116593904Y-143470380D01*
X116546285Y-143946571D01*
X116593904Y-143898952D01*
X116689142Y-143851333D01*
X116927238Y-143851333D01*
X117022476Y-143898952D01*
X117070095Y-143946571D01*
X117117714Y-144041809D01*
X117117714Y-144279904D01*
X117070095Y-144375142D01*
X117022476Y-144422761D01*
X116927238Y-144470380D01*
X116689142Y-144470380D01*
X116593904Y-144422761D01*
X116546285Y-144375142D01*
%TO.C,C2*%
X158583333Y-154027142D02*
X158535714Y-154074761D01*
X158392857Y-154122380D01*
X158297619Y-154122380D01*
X158154761Y-154074761D01*
X158059523Y-153979523D01*
X158011904Y-153884285D01*
X157964285Y-153693809D01*
X157964285Y-153550952D01*
X158011904Y-153360476D01*
X158059523Y-153265238D01*
X158154761Y-153170000D01*
X158297619Y-153122380D01*
X158392857Y-153122380D01*
X158535714Y-153170000D01*
X158583333Y-153217619D01*
X158964285Y-153217619D02*
X159011904Y-153170000D01*
X159107142Y-153122380D01*
X159345238Y-153122380D01*
X159440476Y-153170000D01*
X159488095Y-153217619D01*
X159535714Y-153312857D01*
X159535714Y-153408095D01*
X159488095Y-153550952D01*
X158916666Y-154122380D01*
X159535714Y-154122380D01*
%TO.C,C1*%
X175333333Y-153773142D02*
X175285714Y-153820761D01*
X175142857Y-153868380D01*
X175047619Y-153868380D01*
X174904761Y-153820761D01*
X174809523Y-153725523D01*
X174761904Y-153630285D01*
X174714285Y-153439809D01*
X174714285Y-153296952D01*
X174761904Y-153106476D01*
X174809523Y-153011238D01*
X174904761Y-152916000D01*
X175047619Y-152868380D01*
X175142857Y-152868380D01*
X175285714Y-152916000D01*
X175333333Y-152963619D01*
X176285714Y-153868380D02*
X175714285Y-153868380D01*
X176000000Y-153868380D02*
X176000000Y-152868380D01*
X175904761Y-153011238D01*
X175809523Y-153106476D01*
X175714285Y-153154095D01*
%TD*%
M02*
