%TF.GenerationSoftware,KiCad,Pcbnew,5.1.8-1.fc33*%
%TF.CreationDate,2020-11-27T02:34:12-03:00*%
%TF.ProjectId,Rel_gio,52656cf3-6769-46f2-9e6b-696361645f70,rev?*%
%TF.SameCoordinates,Original*%
%TF.FileFunction,Legend,Bot*%
%TF.FilePolarity,Positive*%
%FSLAX46Y46*%
G04 Gerber Fmt 4.6, Leading zero omitted, Abs format (unit mm)*
G04 Created by KiCad (PCBNEW 5.1.8-1.fc33) date 2020-11-27 02:34:12*
%MOMM*%
%LPD*%
G01*
G04 APERTURE LIST*
%ADD10C,0.150000*%
G04 APERTURE END LIST*
D10*
X113116571Y-154442571D02*
X112616571Y-155942571D01*
X112116571Y-154442571D01*
X111045142Y-155871142D02*
X111188000Y-155942571D01*
X111473714Y-155942571D01*
X111616571Y-155871142D01*
X111688000Y-155728285D01*
X111688000Y-155156857D01*
X111616571Y-155014000D01*
X111473714Y-154942571D01*
X111188000Y-154942571D01*
X111045142Y-155014000D01*
X110973714Y-155156857D01*
X110973714Y-155299714D01*
X111688000Y-155442571D01*
X110330857Y-155942571D02*
X110330857Y-154942571D01*
X110330857Y-155228285D02*
X110259428Y-155085428D01*
X110188000Y-155014000D01*
X110045142Y-154942571D01*
X109902285Y-154942571D01*
X109473714Y-155871142D02*
X109330857Y-155942571D01*
X109045142Y-155942571D01*
X108902285Y-155871142D01*
X108830857Y-155728285D01*
X108830857Y-155656857D01*
X108902285Y-155514000D01*
X109045142Y-155442571D01*
X109259428Y-155442571D01*
X109402285Y-155371142D01*
X109473714Y-155228285D01*
X109473714Y-155156857D01*
X109402285Y-155014000D01*
X109259428Y-154942571D01*
X109045142Y-154942571D01*
X108902285Y-155014000D01*
X107545142Y-155942571D02*
X107545142Y-155156857D01*
X107616571Y-155014000D01*
X107759428Y-154942571D01*
X108045142Y-154942571D01*
X108188000Y-155014000D01*
X107545142Y-155871142D02*
X107688000Y-155942571D01*
X108045142Y-155942571D01*
X108188000Y-155871142D01*
X108259428Y-155728285D01*
X108259428Y-155585428D01*
X108188000Y-155442571D01*
X108045142Y-155371142D01*
X107688000Y-155371142D01*
X107545142Y-155299714D01*
X108259428Y-154585428D02*
X108188000Y-154514000D01*
X108045142Y-154442571D01*
X107759428Y-154585428D01*
X107616571Y-154514000D01*
X107545142Y-154442571D01*
X106616571Y-155942571D02*
X106759428Y-155871142D01*
X106830857Y-155799714D01*
X106902285Y-155656857D01*
X106902285Y-155228285D01*
X106830857Y-155085428D01*
X106759428Y-155014000D01*
X106616571Y-154942571D01*
X106402285Y-154942571D01*
X106259428Y-155014000D01*
X106188000Y-155085428D01*
X106116571Y-155228285D01*
X106116571Y-155656857D01*
X106188000Y-155799714D01*
X106259428Y-155871142D01*
X106402285Y-155942571D01*
X106616571Y-155942571D01*
X103545142Y-155942571D02*
X104402285Y-155942571D01*
X103973714Y-155942571D02*
X103973714Y-154442571D01*
X104116571Y-154656857D01*
X104259428Y-154799714D01*
X104402285Y-154871142D01*
X102902285Y-155799714D02*
X102830857Y-155871142D01*
X102902285Y-155942571D01*
X102973714Y-155871142D01*
X102902285Y-155799714D01*
X102902285Y-155942571D01*
X101902285Y-154442571D02*
X101759428Y-154442571D01*
X101616571Y-154514000D01*
X101545142Y-154585428D01*
X101473714Y-154728285D01*
X101402285Y-155014000D01*
X101402285Y-155371142D01*
X101473714Y-155656857D01*
X101545142Y-155799714D01*
X101616571Y-155871142D01*
X101759428Y-155942571D01*
X101902285Y-155942571D01*
X102045142Y-155871142D01*
X102116571Y-155799714D01*
X102188000Y-155656857D01*
X102259428Y-155371142D01*
X102259428Y-155014000D01*
X102188000Y-154728285D01*
X102116571Y-154585428D01*
X102045142Y-154514000D01*
X101902285Y-154442571D01*
X115973714Y-158342571D02*
X115973714Y-156842571D01*
X115116571Y-158342571D01*
X115116571Y-156842571D01*
X114188000Y-158342571D02*
X114330857Y-158271142D01*
X114402285Y-158199714D01*
X114473714Y-158056857D01*
X114473714Y-157628285D01*
X114402285Y-157485428D01*
X114330857Y-157414000D01*
X114188000Y-157342571D01*
X113973714Y-157342571D01*
X113830857Y-157414000D01*
X113759428Y-157485428D01*
X113688000Y-157628285D01*
X113688000Y-158056857D01*
X113759428Y-158199714D01*
X113830857Y-158271142D01*
X113973714Y-158342571D01*
X114188000Y-158342571D01*
X113188000Y-157342571D02*
X112830857Y-158342571D01*
X112473714Y-157342571D01*
X111330857Y-158271142D02*
X111473714Y-158342571D01*
X111759428Y-158342571D01*
X111902285Y-158271142D01*
X111973714Y-158128285D01*
X111973714Y-157556857D01*
X111902285Y-157414000D01*
X111759428Y-157342571D01*
X111473714Y-157342571D01*
X111330857Y-157414000D01*
X111259428Y-157556857D01*
X111259428Y-157699714D01*
X111973714Y-157842571D01*
X110616571Y-158342571D02*
X110616571Y-157342571D01*
X110616571Y-157485428D02*
X110545142Y-157414000D01*
X110402285Y-157342571D01*
X110188000Y-157342571D01*
X110045142Y-157414000D01*
X109973714Y-157556857D01*
X109973714Y-158342571D01*
X109973714Y-157556857D02*
X109902285Y-157414000D01*
X109759428Y-157342571D01*
X109545142Y-157342571D01*
X109402285Y-157414000D01*
X109330857Y-157556857D01*
X109330857Y-158342571D01*
X108616571Y-158342571D02*
X108616571Y-156842571D01*
X108616571Y-157414000D02*
X108473714Y-157342571D01*
X108188000Y-157342571D01*
X108045142Y-157414000D01*
X107973714Y-157485428D01*
X107902285Y-157628285D01*
X107902285Y-158056857D01*
X107973714Y-158199714D01*
X108045142Y-158271142D01*
X108188000Y-158342571D01*
X108473714Y-158342571D01*
X108616571Y-158271142D01*
X107259428Y-158342571D02*
X107259428Y-157342571D01*
X107259428Y-157628285D02*
X107188000Y-157485428D01*
X107116571Y-157414000D01*
X106973714Y-157342571D01*
X106830857Y-157342571D01*
X106116571Y-158342571D02*
X106259428Y-158271142D01*
X106330857Y-158199714D01*
X106402285Y-158056857D01*
X106402285Y-157628285D01*
X106330857Y-157485428D01*
X106259428Y-157414000D01*
X106116571Y-157342571D01*
X105902285Y-157342571D01*
X105759428Y-157414000D01*
X105688000Y-157485428D01*
X105616571Y-157628285D01*
X105616571Y-158056857D01*
X105688000Y-158199714D01*
X105759428Y-158271142D01*
X105902285Y-158342571D01*
X106116571Y-158342571D01*
X103902285Y-156771142D02*
X105188000Y-158699714D01*
X103473714Y-156985428D02*
X103402285Y-156914000D01*
X103259428Y-156842571D01*
X102902285Y-156842571D01*
X102759428Y-156914000D01*
X102688000Y-156985428D01*
X102616571Y-157128285D01*
X102616571Y-157271142D01*
X102688000Y-157485428D01*
X103545142Y-158342571D01*
X102616571Y-158342571D01*
X101688000Y-156842571D02*
X101545142Y-156842571D01*
X101402285Y-156914000D01*
X101330857Y-156985428D01*
X101259428Y-157128285D01*
X101188000Y-157414000D01*
X101188000Y-157771142D01*
X101259428Y-158056857D01*
X101330857Y-158199714D01*
X101402285Y-158271142D01*
X101545142Y-158342571D01*
X101688000Y-158342571D01*
X101830857Y-158271142D01*
X101902285Y-158199714D01*
X101973714Y-158056857D01*
X102045142Y-157771142D01*
X102045142Y-157414000D01*
X101973714Y-157128285D01*
X101902285Y-156985428D01*
X101830857Y-156914000D01*
X101688000Y-156842571D01*
X100616571Y-156985428D02*
X100545142Y-156914000D01*
X100402285Y-156842571D01*
X100045142Y-156842571D01*
X99902285Y-156914000D01*
X99830857Y-156985428D01*
X99759428Y-157128285D01*
X99759428Y-157271142D01*
X99830857Y-157485428D01*
X100688000Y-158342571D01*
X99759428Y-158342571D01*
X98830857Y-156842571D02*
X98688000Y-156842571D01*
X98545142Y-156914000D01*
X98473714Y-156985428D01*
X98402285Y-157128285D01*
X98330857Y-157414000D01*
X98330857Y-157771142D01*
X98402285Y-158056857D01*
X98473714Y-158199714D01*
X98545142Y-158271142D01*
X98688000Y-158342571D01*
X98830857Y-158342571D01*
X98973714Y-158271142D01*
X99045142Y-158199714D01*
X99116571Y-158056857D01*
X99188000Y-157771142D01*
X99188000Y-157414000D01*
X99116571Y-157128285D01*
X99045142Y-156985428D01*
X98973714Y-156914000D01*
X98830857Y-156842571D01*
M02*
